<svg width="178" height="94" viewBox="0 0 178 94" fill="none" xmlns="http://www.w3.org/2000/svg">
<g clip-path="url(#clip0_569_21)">
<path d="M24.2667 1.59956C23.4667 2.53289 21.4667 6.66622 19.6 10.6662L16.4 18.1329L11.0667 17.5996C8 17.3329 4.4 17.7329 2.8 18.5329C0.133333 19.9996 0 21.1996 0 37.9996V55.8662L4 57.9996C7.2 59.7329 8 60.9329 8 64.5329C8 69.7329 9.46667 70.6662 18.6667 70.6662H24.9333L25.7333 75.9996C26.5333 82.6662 30.6667 88.3996 36.5333 91.1996C42.2667 93.8662 53.6 93.9996 58.6667 91.3329C63.4667 88.7996 69.3333 80.5329 69.3333 76.2662C69.3333 74.3996 71.0667 71.4662 73.4667 69.1996C77.6 65.3329 77.6 65.3329 95.3333 65.3329C111.2 65.3329 113.333 65.5996 116.533 68.1329C118.667 69.7329 120 72.1329 120 74.2662C120 79.5996 125.2 87.4662 130.667 90.5329C137.733 94.3996 148.667 94.3996 154.667 90.2662C161.067 85.9996 164.533 79.4662 164.533 71.7329C164.533 66.9329 164.933 65.4662 166.267 65.8662C167.2 66.2662 169.867 66.2662 172 65.7329C175.867 65.0662 176 64.7996 176 57.0662C176 49.9996 175.6 48.9329 173.2 48.3996C170.533 47.7329 170.4 46.9329 171.067 40.1329C171.733 33.0662 171.6 32.5329 167.867 29.5996C164.267 26.6662 162.267 26.2662 142.267 25.4662C130.4 24.9329 120 24.1329 119.2 23.7329C118.4 23.1996 114.667 17.7329 110.933 11.4662L103.867 -0.000444324H64.8C35.0667 -0.000444324 25.3333 0.399556 24.2667 1.59956ZM108 17.1996C114.933 28.7996 115.2 29.0662 121.067 29.8662C124.4 30.2662 134.533 30.6662 143.733 30.6662C163.733 30.6662 165.333 31.4662 165.333 41.5996C165.333 46.9329 164.933 47.9996 162.8 47.9996C160 47.9996 156.8 51.0662 158.267 52.3996C158.667 52.9329 162 53.3329 165.6 53.3329C171.467 53.3329 172 53.5996 172 56.5329C172 58.7996 170.8 60.3996 167.867 61.8662C163.867 63.8662 163.733 63.7329 159.867 59.4662C149.867 47.9996 133.6 47.7329 124.933 58.7996C122.933 61.3329 121.333 62.5329 121.333 61.5996C121.333 60.3996 115.333 59.9996 96 59.9996C74.4 59.9996 70.4 60.2662 69.7333 61.9996C69.2 63.5996 68 62.9329 64.5333 58.7996C62 55.8662 57.7333 52.7996 55.2 51.9996C48.8 49.8662 39.3333 51.0662 34.5333 54.5329C30.9333 57.1996 30.4 57.3329 27.7333 55.3329C26 54.2662 23.7333 53.3329 22.4 53.3329C20.2667 53.3329 20 51.8662 20 38.7996C20 28.9329 20.6667 22.7996 22 19.4662C23.0667 16.7996 24.9333 12.5329 25.8667 9.99956L27.8667 5.33289H64.4H101.067L108 17.1996ZM12.1333 23.9996C12.8 23.9996 13.3333 30.2662 13.3333 37.9996V51.9996H9.33333H5.33333V38.2662C5.33333 24.1329 5.86667 21.9996 9.06667 23.3329C10 23.7329 11.4667 23.9996 12.1333 23.9996ZM58.8 61.1996C63.3333 65.7329 64 67.0662 64 72.6662C64 77.9996 63.3333 79.5996 59.6 83.3329C53.8667 89.0662 49.0667 90.2662 42.1333 87.8662C31.7333 84.2662 27.7333 72.7996 33.7333 63.8662C37.4667 58.3996 41.7333 55.9996 48.5333 55.9996C52.6667 55.9996 54.5333 56.9329 58.8 61.1996ZM150.667 57.9996C158.533 61.9996 161.333 74.9329 155.867 81.8662C147.6 92.3996 133.067 91.1996 127.6 79.5996C124.8 73.7329 124.8 70.2662 127.333 65.1996C131.6 57.0662 142.4 53.7329 150.667 57.9996ZM25.4667 60.7996C27.7333 63.5996 25.0667 65.3329 18.4 65.3329C13.8667 65.3329 13.3333 64.9329 13.3333 61.9996C13.3333 59.0662 13.8667 58.6662 18.5333 58.6662C21.6 58.6662 24.4 59.4662 25.4667 60.7996Z" fill="#4C4C4C"/>
<path d="M72.9333 8.79884C72.5333 9.59884 72.5333 14.2655 73.0667 19.4655L74 28.6655L87.3333 29.0655C94.6667 29.3322 102.133 28.9322 104 28.3988C106.267 27.7322 102.267 27.0655 92 26.6655L76.6667 25.9988L75.7333 17.9988C74.5333 8.39884 74.1333 7.06551 72.9333 8.79884Z" fill="#4C4C4C"/>
<path d="M76.4 35.5988C77.6 35.8655 79.7333 35.8655 81.0667 35.5988C82.2667 35.1988 81.2 34.9322 78.6667 34.9322C76.1333 34.9322 75.0667 35.1988 76.4 35.5988Z" fill="#4C4C4C"/>
<path d="M40.5333 64.5326C37.6 66.9326 36.8 68.7992 36.9333 72.6659C37.0666 79.3326 41.0666 83.1992 47.4666 83.1992C57.3333 83.1992 62.1333 71.7326 55.2 64.7992C50.8 60.3992 45.3333 60.2659 40.5333 64.5326ZM53.3333 66.6659C57.0666 70.3992 56.6666 75.1992 52.5333 78.5326C48 82.1326 45.8666 81.9992 42 77.9992C38 74.1326 37.8666 71.9992 41.4666 67.4659C44.8 63.3326 49.6 62.9326 53.3333 66.6659Z" fill="#4C4C4C"/>
<path d="M135.467 64.1331C132.933 66.1331 132 68.1331 132 71.3331C132 77.5998 133.067 79.8665 137.467 81.9998C142.8 84.7998 145.067 84.5331 149.467 80.1331C154.8 74.7998 154.667 69.3331 149.2 64.7998C144.267 60.6665 140.267 60.3998 135.467 64.1331ZM147.733 66.1331C152 69.0665 151.2 75.4665 146.267 79.1998C142.8 81.7331 142.267 81.7331 138.933 79.8665C132.133 76.1331 134.267 63.9998 141.867 63.9998C143.467 63.9998 146.133 64.9331 147.733 66.1331Z" fill="#4C4C4C"/>
</g>
<defs>
<clipPath id="clip0_569_21">
<rect width="177.333" height="93.3333" fill="white"/>
</clipPath>
</defs>
</svg>
