<svg width="152" height="71" viewBox="0 0 152 71" fill="none" xmlns="http://www.w3.org/2000/svg">
<path d="M53.9056 0.67159C33.9871 2.40896 6.57628 12.3312 3.10424 19.0877C2.16009 20.9409 0.941833 34.9556 0.911377 44.3374C0.911377 51.0166 1.9469 52.5223 8.95188 55.9585C13.7031 58.2749 14.434 58.8927 16.2919 62.3288C21.9873 72.7916 33.2561 73.2935 40.1393 63.3326L42.6367 59.7421L75.6516 60.1667L108.666 60.63L110.555 63.6029C116.28 72.6372 127.976 72.6372 133.671 63.6415L135.62 60.5528L141.803 60.0123C147.437 59.4718 148.107 59.2401 149.661 57.2711L151.366 55.1091V43.9513C151.366 31.0562 151.062 30.1296 145.732 26.6935C138.331 21.9447 127.945 19.4738 115.428 19.4738H108.423L103.489 15.4199C87.4077 2.21592 84.0575 0.787414 68.5247 0.555765C62.3421 0.439941 55.7635 0.517157 53.9056 0.67159ZM80.1896 6.4242C87.0423 8.58626 100.199 16.694 100.199 18.7788C100.199 19.2035 93.7731 19.4351 84.2098 19.2807L68.2202 19.0877L67.4892 12.1382C66.5755 3.1039 67.7938 2.56339 80.1896 6.4242ZM63.5299 11.2116C64.5959 18.7016 64.3827 19.4351 61.3979 19.0491C60.1188 18.8946 55.9462 18.3541 52.0782 17.8908C42.454 16.7712 30.1496 12.8332 30.1496 10.9414C30.1496 9.43564 54.2407 4.72544 60.271 5.07292L62.6771 5.18874L63.5299 11.2116ZM26.8907 14.4933C37.581 22.408 44.3728 23.4504 90.4534 24.1067C130.565 24.6472 133.306 24.9175 132.666 27.9675C131.691 32.6005 133.762 34.8012 142.229 38.0829L147.407 40.0905L147.59 46.5767C147.803 54.53 147.468 54.9933 141.255 54.9933H136.869L136.839 50.2445C136.564 26.2688 108.21 26.6549 107.174 50.6691L106.961 55.3793L97.032 55.5724C91.5803 55.6496 77.3876 55.4952 65.4791 55.1863L43.855 54.6072L43.4895 49.8584C42.2408 33.3727 27.2258 26.346 18.0279 38.0057C15.3477 41.4032 13.7031 45.6501 13.7031 49.2792C13.6726 52.6382 12.8808 52.8312 8.61686 50.4375L4.56615 48.121V41.5576C4.56615 32.3303 4.93163 31.4037 8.92143 30.8246C14.2513 30.0138 16.7183 23.8365 13.429 19.5124C11.9671 17.582 11.9062 17.3117 12.9112 16.887C13.5204 16.6554 15.9264 15.5743 18.2716 14.5319C23.6319 12.1382 23.7233 12.1382 26.8907 14.4933ZM10.6574 24.184C10.6574 25.1105 8.52549 26.4232 7.03313 26.4232C5.69304 26.4232 5.20574 23.7207 6.48491 23.1801C7.58134 22.7168 10.6574 23.4504 10.6574 24.184ZM142.808 30.4771C149.722 34.8784 147.285 36.3069 139.945 32.1758C136.778 30.3999 136.016 29.2416 137.509 28.4695C138.696 27.8903 138.636 27.8517 142.808 30.4771ZM34.9008 39.55C40.8094 44.9551 41.4489 54.6072 36.3322 61.3636C29.51 70.4365 17.3579 64.0662 17.3579 51.4413C17.3579 39.9747 27.7435 32.948 34.9008 39.55ZM128.037 39.2797C134.707 44.7621 134.859 57.6572 128.311 63.2554C118.93 71.2473 107.022 58.3136 111.834 45.3798C114.727 37.5038 122.372 34.6468 128.037 39.2797Z" fill="#4C4C4C"/>
<path d="M25.307 43.295C18.5457 47.8894 21.0431 60.3984 28.7486 60.3984C36.2104 60.3984 38.3728 47.2331 31.5506 43.102C28.9313 41.5191 27.8653 41.5577 25.307 43.295ZM31.3374 48.7774C33.3475 53.4876 29.4186 57.9661 26.4034 54.4914C25.1243 53.0243 24.9111 49.5882 26.0075 48.1983C27.1953 46.6925 30.6369 47.04 31.3374 48.7774Z" fill="#4C4C4C"/>
<path d="M118.473 43.5649C114.91 46.615 113.874 51.2093 115.732 55.7651C119.722 65.5329 131.448 58.8923 128.676 48.3909C127.184 42.7155 122.219 40.3604 118.473 43.5649ZM124.9 49.1631C126.118 51.5182 125.631 53.6416 123.59 55.0315C120.362 57.2322 117.011 52.1745 119.417 48.7384C120.94 46.615 123.712 46.8466 124.9 49.1631Z" fill="#4C4C4C"/>
</svg>
