<svg width="152" height="71" viewBox="0 0 152 71" fill="none" xmlns="http://www.w3.org/2000/svg">
<g clip-path="url(#clip0_526_182)">
<path d="M5.37892 2.4396L5.37972 2.43887C5.43784 2.38554 5.52716 2.34835 5.61938 2.31876C5.71777 2.28721 5.84315 2.2573 5.99251 2.22857C6.29169 2.17103 6.69997 2.1158 7.20806 2.06258C8.22498 1.95606 9.65342 1.85645 11.4336 1.76373C14.9946 1.57825 19.971 1.41992 25.8953 1.28962C37.7441 1.029 53.3891 0.880393 69.095 0.851088C84.8009 0.821783 100.569 0.91179 112.663 1.12844C118.711 1.23677 123.84 1.37677 127.586 1.54941C129.458 1.63573 130.985 1.73026 132.109 1.83324C132.671 1.88471 133.134 1.93845 133.49 1.99465C133.839 2.04989 134.101 2.10982 134.249 2.17966L134.25 2.18013C134.857 2.47222 136.05 2.78761 137.496 3.05972C138.938 3.33083 140.613 3.55614 142.175 3.67293C143.745 3.79036 145.28 3.95815 146.488 4.13454C147.091 4.22271 147.615 4.31327 148.021 4.4011C148.224 4.44501 148.4 4.48858 148.542 4.53131C148.679 4.57277 148.795 4.6161 148.875 4.66255C149.218 4.84635 149.513 5.2084 149.766 5.67441C150.021 6.14487 150.244 6.73823 150.432 7.40609C150.807 8.74228 151.05 10.3954 151.14 12.0042C151.232 13.6122 151.173 15.1862 150.939 16.363C150.823 16.9501 150.66 17.4494 150.444 17.8058C150.229 18.1616 149.942 18.402 149.572 18.402C149.305 18.402 149.062 18.3659 148.861 18.2062C148.662 18.0484 148.529 17.79 148.428 17.4086C148.227 16.6493 148.127 15.291 147.999 12.9037L147.721 7.67748L144.463 7.48436C143.649 7.43406 143.037 7.39873 142.588 7.39199C142.363 7.38861 142.182 7.39246 142.039 7.40462C141.895 7.41693 141.799 7.4371 141.738 7.46146C141.679 7.48527 141.672 7.50489 141.671 7.50687C141.669 7.51348 141.663 7.54057 141.688 7.60904C141.743 7.74996 141.886 7.95348 142.11 8.25239L142.111 8.2529C144.388 11.3011 145.559 15.4548 146.043 22.1951C146.913 34.2521 147.511 44.6102 147.796 52.0261C147.939 55.7336 148.003 58.7074 147.984 60.7909C147.974 61.8322 147.943 62.6541 147.89 63.2351C147.863 63.5251 147.832 63.7594 147.792 63.9328C147.773 64.0191 147.751 64.0948 147.724 64.1563C147.701 64.2135 147.665 64.2777 147.608 64.3195L147.609 64.3197L147.602 64.3241C147.549 64.3595 147.468 64.3828 147.387 64.4013C147.299 64.4214 147.186 64.4408 147.051 64.4596C146.782 64.4973 146.414 64.5341 145.961 64.5695C145.055 64.6404 143.801 64.7064 142.29 64.7629C139.268 64.876 135.213 64.9514 130.851 64.9514H115.059L114.021 66.4592C114.021 66.4589 114.021 66.4595 114.021 66.4592C112.329 69.0112 108.95 70.1683 105.804 70.05C102.662 69.9318 99.6678 68.5367 98.7982 65.8877V65.8861C98.7755 65.8158 98.7242 65.7414 98.5933 65.6654C98.458 65.5868 98.245 65.5114 97.9141 65.4428C97.2531 65.3057 96.1651 65.2045 94.395 65.1312C90.8585 64.9849 84.6362 64.9514 73.7504 64.9514H48.9533L47.9158 66.4595C47.9156 66.4598 47.9154 66.4601 47.9152 66.4604C46.2424 68.9727 43.2117 70.1928 40.2329 70.1547C37.254 70.1165 34.2925 68.8193 32.7636 66.2524C32.5879 65.9584 32.4135 65.7479 32.052 65.5808C31.6787 65.4082 31.0997 65.279 30.105 65.1809C28.1183 64.9849 24.5435 64.918 17.8152 64.8174C17.4998 64.8131 17.1903 64.8088 16.8867 64.8047C13.091 64.753 10.2045 64.7138 8.01212 64.5954C5.64882 64.4677 4.07053 64.2477 3.02213 63.8097C2.49432 63.5893 2.09527 63.3115 1.79749 62.9583C1.49979 62.6052 1.3104 62.1851 1.18936 61.6907C0.969104 60.791 0.970377 59.6177 0.972015 58.1088C0.972159 57.9764 0.972304 57.8415 0.972304 57.7038C0.972304 56.7412 0.979407 55.9927 1.00855 55.4093C1.0376 54.8277 1.08891 54.4 1.18124 54.0834C1.27479 53.7625 1.41388 53.5441 1.62418 53.3963C1.82806 53.2529 2.08283 53.1883 2.37733 53.1376L2.37951 53.1373L3.53747 52.9558L3.6792 28.5008L3.82167 3.95351L3.82204 3.88966L3.86876 3.84614L5.37892 2.4396ZM134.964 5.88905L134.963 5.8888L132.434 4.33653L70.2738 4.13573C41.9932 4.05201 26.423 4.03528 17.8196 4.16083C13.5168 4.22363 10.9613 4.32199 9.43091 4.46475C8.66508 4.5362 8.16292 4.61819 7.82942 4.71007C7.49473 4.80228 7.34859 4.8996 7.27347 4.98788C7.09184 5.20136 6.93787 5.52466 6.81781 6.23429C6.69762 6.94472 6.61409 8.02452 6.5607 9.73579C6.45395 13.1565 6.46815 19.0723 6.53939 29.5388L6.68103 52.9433L9.8198 53.1357L13.0966 53.3366L13.2354 53.3452V53.4843V57.4695V61.3068H21.8351H30.4742L30.72 58.1278C31.3101 50.9383 36.1875 47.4401 40.9405 47.5722C43.3129 47.6381 45.6491 48.6092 47.3918 50.4702C49.1353 52.3321 50.2771 55.0762 50.2771 58.6751V61.3068H73.4085H96.5794L96.8253 58.1278C97.4154 50.9389 102.277 47.4236 107.024 47.5387C109.393 47.5961 111.727 48.5588 113.473 50.4134C115.219 52.2689 116.368 55.0087 116.382 58.6074V61.3063L127.204 61.2733H138.074L139.119 58.6218C139.119 58.6219 139.119 58.6217 139.119 58.6218C139.814 56.8195 141.086 55.1891 142.675 54.0345C143.276 53.5975 143.719 53.2737 144.048 52.98C144.374 52.6883 144.577 52.4341 144.702 52.1409C144.829 51.8464 144.882 51.4993 144.886 51.0117C144.89 50.5228 144.844 49.9061 144.78 49.0752C144.637 47.2311 144.181 39.1915 143.754 31.1886C143.269 21.9728 142.785 16.6965 141.564 13.1957C140.956 11.4511 140.166 10.1511 139.102 9.02592C138.036 7.89853 136.691 6.94175 134.964 5.88905ZM44.1978 51.8936C42.4082 50.5132 39.875 50.1309 38.2269 50.938C35.2479 52.3845 33.6269 55.3543 33.4585 58.3693C33.29 61.3844 34.5743 64.4231 37.38 66.0144C39.3877 67.1573 41.2744 67.2018 42.8614 66.5494C44.4534 65.8951 45.7595 64.5333 46.5841 62.8383C48.2344 59.4461 47.9343 54.7719 44.1978 51.8936ZM142.821 57.9622L142.82 57.9632C142.332 58.5788 141.981 59.1035 141.763 59.5425C141.545 59.9847 141.469 60.3222 141.505 60.571C141.54 60.8057 141.677 60.9835 141.95 61.1088C142.231 61.238 142.649 61.3068 143.218 61.3068C143.819 61.3068 144.26 61.298 144.586 61.2434C144.909 61.1891 145.091 61.0939 145.2 60.9445C145.314 60.7888 145.373 60.5449 145.378 60.1388C145.383 59.7358 145.336 59.2023 145.264 58.4888C145.193 57.779 145.106 57.2502 144.988 56.8905C144.867 56.519 144.734 56.385 144.614 56.3579C144.553 56.3441 144.471 56.3517 144.361 56.4014C144.251 56.4513 144.12 56.54 143.966 56.6737C143.659 56.9411 143.284 57.3692 142.821 57.9622ZM105.78 67.0703C107.785 67.512 109.453 66.981 110.715 65.8794C111.982 64.7738 112.847 63.0865 113.222 61.2121C113.972 57.4575 112.742 53.0249 108.931 51.105C107.895 50.5977 107.406 50.3652 106.893 50.3417C106.376 50.3183 105.824 50.5053 104.657 50.9113C101.078 52.1723 99.4735 55.7795 99.7171 59.3096C99.9596 62.8395 102.045 66.2345 105.78 67.0703ZM3.50099 56.2443L3.6612 58.5981L3.82329 60.9795L7.25464 61.173L10.6601 61.3651V58.809V56.2443H7.07535H3.50099Z" fill="#4C4C4C"/>
<path d="M114.021 66.4592L115.059 64.9514H130.851C135.213 64.9514 139.268 64.876 142.29 64.7629C143.801 64.7064 145.055 64.6404 145.961 64.5695C146.414 64.5341 146.782 64.4973 147.051 64.4596C147.186 64.4408 147.299 64.4214 147.387 64.4013C147.468 64.3828 147.549 64.3595 147.602 64.3241L147.609 64.3197L147.608 64.3195C147.665 64.2777 147.701 64.2135 147.724 64.1563C147.751 64.0948 147.773 64.0191 147.792 63.9328C147.832 63.7594 147.863 63.5251 147.89 63.2351C147.943 62.6541 147.974 61.8322 147.984 60.7909C148.003 58.7074 147.939 55.7336 147.796 52.0261C147.511 44.6102 146.913 34.2521 146.043 22.1951C145.559 15.4548 144.388 11.3011 142.111 8.2529L142.11 8.25239C141.886 7.95348 141.743 7.74996 141.688 7.60904C141.663 7.54057 141.669 7.51348 141.671 7.50687C141.672 7.50489 141.679 7.48527 141.738 7.46146C141.799 7.4371 141.895 7.41693 142.039 7.40462C142.182 7.39246 142.363 7.38861 142.588 7.39199C143.037 7.39873 143.649 7.43406 144.463 7.48436L147.721 7.67748L147.999 12.9037C148.127 15.291 148.227 16.6493 148.428 17.4086C148.529 17.79 148.662 18.0484 148.861 18.2062C149.062 18.3659 149.305 18.402 149.572 18.402C149.942 18.402 150.229 18.1616 150.444 17.8058C150.66 17.4494 150.823 16.9501 150.939 16.363C151.173 15.1862 151.232 13.6122 151.14 12.0042C151.05 10.3954 150.807 8.74228 150.432 7.40609C150.244 6.73823 150.021 6.14487 149.766 5.67441C149.513 5.2084 149.218 4.84635 148.875 4.66255C148.795 4.6161 148.679 4.57277 148.542 4.53131C148.4 4.48858 148.224 4.44501 148.021 4.4011C147.615 4.31327 147.091 4.22271 146.488 4.13454C145.28 3.95815 143.745 3.79036 142.175 3.67293C140.613 3.55614 138.938 3.33083 137.496 3.05972C136.05 2.78761 134.857 2.47222 134.25 2.18013L134.249 2.17966C134.101 2.10982 133.839 2.04989 133.49 1.99465C133.134 1.93845 132.671 1.88471 132.109 1.83324C130.985 1.73026 129.458 1.63573 127.586 1.54941C123.84 1.37677 118.711 1.23677 112.663 1.12844C100.569 0.91179 84.8009 0.821783 69.095 0.851088C53.3891 0.880393 37.7441 1.029 25.8953 1.28962C19.971 1.41992 14.9946 1.57825 11.4336 1.76373C9.65342 1.85645 8.22498 1.95606 7.20806 2.06258C6.69997 2.1158 6.29169 2.17103 5.99251 2.22857C5.84315 2.2573 5.71777 2.28721 5.61938 2.31876C5.52716 2.34835 5.43784 2.38554 5.37972 2.43887L5.37892 2.4396L3.86876 3.84614L3.82204 3.88966L3.82167 3.95351L3.6792 28.5008L3.53747 52.9558L2.37951 53.1373L2.37733 53.1376C2.08283 53.1883 1.82806 53.2529 1.62418 53.3963C1.41388 53.5441 1.27479 53.7625 1.18124 54.0834C1.08891 54.4 1.0376 54.8277 1.00855 55.4093C0.979407 55.9927 0.972304 56.7412 0.972304 57.7038C0.972304 57.8415 0.972159 57.9764 0.972015 58.1088C0.970377 59.6177 0.969104 60.791 1.18936 61.6907C1.3104 62.1851 1.49979 62.6052 1.79749 62.9583C2.09527 63.3115 2.49432 63.5893 3.02213 63.8097C4.07053 64.2477 5.64882 64.4677 8.01212 64.5954C10.2045 64.7138 13.091 64.753 16.8867 64.8047C17.1903 64.8088 17.4998 64.8131 17.8152 64.8174C24.5435 64.918 28.1183 64.9849 30.105 65.1809C31.0997 65.279 31.6787 65.4082 32.052 65.5808C32.4135 65.7479 32.5879 65.9584 32.7636 66.2524C34.2925 68.8193 37.254 70.1165 40.2329 70.1547C43.2117 70.1928 46.2424 68.9727 47.9152 66.4604C47.9154 66.4601 47.9156 66.4598 47.9158 66.4595L48.9533 64.9514H73.7504C84.6362 64.9514 90.8585 64.9849 94.395 65.1312C96.1651 65.2045 97.2531 65.3057 97.9141 65.4428C98.245 65.5114 98.458 65.5868 98.5933 65.6654C98.7242 65.7414 98.7755 65.8158 98.7982 65.8861V65.8877C99.6678 68.5367 102.662 69.9318 105.804 70.05C108.95 70.1683 112.329 69.0112 114.021 66.4592ZM114.021 66.4592C114.021 66.4595 114.021 66.4589 114.021 66.4592ZM139.119 58.6218L138.074 61.2733H127.204L116.382 61.3063V58.6074C116.368 55.0087 115.219 52.2689 113.473 50.4134C111.727 48.5588 109.393 47.5961 107.024 47.5387C102.277 47.4236 97.4154 50.9389 96.8253 58.1278L96.5794 61.3068H73.4085H50.2771V58.6751C50.2771 55.0762 49.1353 52.3321 47.3918 50.4702C45.6491 48.6092 43.3129 47.6381 40.9405 47.5722C36.1875 47.4401 31.3101 50.9383 30.72 58.1278L30.4742 61.3068H21.8351H13.2354V57.4695V53.4843V53.3452L13.0966 53.3366L9.8198 53.1357L6.68103 52.9433L6.53939 29.5388C6.46815 19.0723 6.45395 13.1565 6.5607 9.73579C6.61409 8.02452 6.69762 6.94472 6.81781 6.23429C6.93787 5.52466 7.09184 5.20136 7.27347 4.98788C7.34859 4.8996 7.49473 4.80228 7.82942 4.71007C8.16292 4.61819 8.66508 4.5362 9.43091 4.46475C10.9613 4.32199 13.5168 4.22363 17.8196 4.16083C26.423 4.03528 41.9932 4.05201 70.2738 4.13573L132.434 4.33653L134.963 5.8888L134.964 5.88905C136.691 6.94175 138.036 7.89853 139.102 9.02592C140.166 10.1511 140.956 11.4511 141.564 13.1957C142.785 16.6965 143.269 21.9728 143.754 31.1886C144.181 39.1915 144.637 47.2311 144.78 49.0752C144.844 49.9061 144.89 50.5228 144.886 51.0117C144.882 51.4993 144.829 51.8464 144.702 52.1409C144.577 52.4341 144.374 52.6883 144.048 52.98C143.719 53.2737 143.276 53.5975 142.675 54.0345C141.086 55.1891 139.814 56.8195 139.119 58.6218ZM139.119 58.6218C139.119 58.6217 139.119 58.6219 139.119 58.6218ZM44.1978 51.8936C42.4082 50.5132 39.875 50.1309 38.2269 50.938C35.2479 52.3845 33.6269 55.3543 33.4585 58.3693C33.29 61.3844 34.5743 64.4231 37.38 66.0144C39.3877 67.1573 41.2744 67.2018 42.8614 66.5494C44.4534 65.8951 45.7595 64.5333 46.5841 62.8383C48.2344 59.4461 47.9343 54.7719 44.1978 51.8936ZM142.821 57.9622L142.82 57.9632C142.332 58.5788 141.981 59.1035 141.763 59.5425C141.545 59.9847 141.469 60.3222 141.505 60.571C141.54 60.8057 141.677 60.9835 141.95 61.1088C142.231 61.238 142.649 61.3068 143.218 61.3068C143.819 61.3068 144.26 61.298 144.586 61.2434C144.909 61.1891 145.091 61.0939 145.2 60.9445C145.314 60.7888 145.373 60.5449 145.378 60.1388C145.383 59.7358 145.336 59.2023 145.264 58.4888C145.193 57.779 145.106 57.2502 144.988 56.8905C144.867 56.519 144.734 56.385 144.614 56.3579C144.553 56.3441 144.471 56.3517 144.361 56.4014C144.251 56.4513 144.12 56.54 143.966 56.6737C143.659 56.9411 143.284 57.3692 142.821 57.9622ZM105.78 67.0703C107.785 67.512 109.453 66.981 110.715 65.8794C111.982 64.7738 112.847 63.0865 113.222 61.2121C113.972 57.4575 112.742 53.0249 108.931 51.105C107.895 50.5977 107.406 50.3652 106.893 50.3417C106.376 50.3183 105.824 50.5053 104.657 50.9113C101.078 52.1723 99.4735 55.7795 99.7171 59.3096C99.9596 62.8395 102.045 66.2345 105.78 67.0703ZM3.50099 56.2443L3.6612 58.5981L3.82329 60.9795L7.25464 61.173L10.6601 61.3651V58.809V56.2443H7.07535H3.50099Z" stroke="#4C4C4C" stroke-width="0.3"/>
<path d="M109.582 8.6008L109.583 8.59927C109.797 8.24617 109.994 7.95389 110.321 7.73052C110.645 7.50776 111.083 7.36312 111.761 7.2655C113.114 7.07101 115.5 7.05469 120.053 7.05469C124.421 7.05469 127.888 7.24707 130.643 7.85191C133.401 8.45741 135.456 9.47835 136.994 11.1418C138.529 12.8034 139.532 15.0914 140.216 18.2049C140.899 21.3179 141.264 25.2694 141.513 30.2689C141.826 36.4564 141.928 39.9173 141.608 41.8293C141.447 42.7868 141.177 43.3897 140.742 43.7463C140.308 44.1031 139.741 44.1881 139.058 44.1881C138.674 44.1881 137.934 44.0487 136.952 43.8118C135.962 43.5733 134.709 43.2315 133.286 42.8181C130.44 41.9912 126.912 40.876 123.45 39.7223C119.988 38.5687 116.593 37.3759 114.014 36.3939C112.724 35.903 111.638 35.4639 110.848 35.1082C110.453 34.9305 110.13 34.7724 109.892 34.638C109.773 34.571 109.673 34.5084 109.595 34.4509C109.521 34.3963 109.453 34.3369 109.414 34.2734C109.328 34.1383 109.258 33.927 109.196 33.6657C109.133 33.4 109.075 33.0676 109.024 32.6794C108.921 31.9028 108.837 30.8934 108.773 29.7304C108.644 27.4036 108.591 24.4524 108.61 21.4971C108.63 18.5419 108.721 15.5801 108.882 13.2325C108.962 12.059 109.06 11.0367 109.173 10.2446C109.23 9.84861 109.292 9.50796 109.358 9.23359C109.424 8.96274 109.497 8.74413 109.582 8.6008ZM111.796 10.0296L111.966 21.3661L112.107 32.7465L125.568 37.0341L125.569 37.0343C129.3 38.2397 132.705 39.3026 135.189 40.0431C136.432 40.4134 137.443 40.7028 138.151 40.889C138.505 40.9822 138.78 41.049 138.969 41.0871C139.033 41.0999 139.086 41.1092 139.127 41.1151C139.128 41.0823 139.13 41.0427 139.131 40.996C139.135 40.8437 139.135 40.6254 139.132 40.3476C139.126 39.7923 139.107 39.0044 139.078 38.042C139.017 36.1175 138.91 33.4979 138.767 30.6521C138.411 23.7011 137.841 19.3306 136.61 16.3981C135.996 14.9362 135.218 13.8343 134.221 12.9492C133.222 12.063 131.999 11.3885 130.484 10.7894C130.223 10.6876 129.751 10.5868 129.1 10.4944C128.455 10.4023 127.644 10.3199 126.716 10.251C124.861 10.1132 122.543 10.0296 120.138 10.0296H111.796Z" fill="#4C4C4C" stroke="#4C4C4C" stroke-width="0.3"/>
<path d="M116.049 45.0584L116.048 45.0583C115.091 44.9578 114.313 44.8504 113.691 44.7212C113.071 44.5924 112.598 44.44 112.257 44.2441C111.912 44.0462 111.695 43.7982 111.609 43.4806C111.525 43.1697 111.574 42.8166 111.706 42.4203C111.772 42.217 111.964 42.0747 112.192 41.9726C112.426 41.8676 112.732 41.7894 113.081 41.7335C113.782 41.6214 114.688 41.5944 115.618 41.6407C116.55 41.6872 117.512 41.8074 118.326 41.9927C118.733 42.0855 119.106 42.195 119.421 42.3211C119.733 42.4463 119.998 42.5915 120.181 42.7596C120.583 43.1296 120.8 43.4999 120.783 43.854C120.765 44.2179 120.507 44.5 120.116 44.6997C119.339 45.0969 117.906 45.2432 116.049 45.0584Z" fill="#4C4C4C" stroke="#4C4C4C" stroke-width="0.3"/>
<path d="M37.3794 54.2116C38.6693 53.0616 40.3784 52.9452 41.8995 53.6C43.4193 54.2542 44.7595 55.6792 45.3414 57.6284C45.493 58.1361 45.4865 58.7498 45.3688 59.3893C45.2506 60.0305 45.019 60.7076 44.7096 61.3477C44.0947 62.6199 43.1551 63.7808 42.1513 64.2034L42.1499 64.204C40.8411 64.7397 39.6063 64.6262 38.5642 64.0886C37.5257 63.5531 36.6859 62.6009 36.1476 61.4683C35.0728 59.2064 35.1813 56.175 37.3794 54.2116ZM41.3506 60.9343C42.542 60.0426 42.8369 58.3576 42.0015 57.153C41.5852 56.5696 41.0089 56.2865 40.4413 56.2865C39.8735 56.2865 39.2971 56.5698 38.8808 57.1535C38.1687 58.1644 38.3324 59.4527 38.9184 60.3216C39.2105 60.7548 39.5998 61.0712 40.0209 61.1977C40.4361 61.3226 40.8955 61.2674 41.3506 60.9343Z" fill="#4C4C4C" stroke="#4C4C4C" stroke-width="0.3"/>
<path d="M103.097 54.8649L103.098 54.8636C103.997 53.7463 105.075 53.2126 106.16 53.1427C107.242 53.073 108.312 53.4654 109.2 54.1708C110.974 55.5812 112.037 58.2588 111.017 61.1011C110.316 63.0759 108.776 64.2451 107.127 64.4878C105.478 64.7308 103.733 64.0433 102.632 62.3372C102.025 61.396 101.789 59.9787 101.875 58.5849C101.962 57.1903 102.373 55.7842 103.097 54.8649ZM107.455 60.9324C108.647 60.0408 108.942 58.3557 108.107 57.1513C107.69 56.5678 107.114 56.2847 106.546 56.2847C105.979 56.2847 105.403 56.5679 104.986 57.1516C104.274 58.1626 104.438 59.4509 105.023 60.3198C105.316 60.7529 105.705 61.0693 106.126 61.1959C106.542 61.3208 107.001 61.2655 107.455 60.9324Z" fill="#4C4C4C" stroke="#4C4C4C" stroke-width="0.3"/>
<path fill-rule="evenodd" clip-rule="evenodd" d="M13.008 10.3601C12.4557 10.3601 12.008 10.8078 12.008 11.3601V32.0361C12.008 32.5884 12.4557 33.0361 13.008 33.0361H102.698C103.25 33.0361 103.698 32.5884 103.698 32.0361V11.3601C103.698 10.8078 103.25 10.3601 102.698 10.3601H13.008ZM11.0221 7.40234C9.93305 7.40234 9.05023 8.28516 9.05023 9.37417V34.0221C9.05023 35.1111 9.93305 35.9939 11.0221 35.9939H104.684C105.773 35.9939 106.656 35.1111 106.656 34.0221V9.37417C106.656 8.28516 105.773 7.40234 104.684 7.40234H11.0221Z" fill="#4C4C4C"/>
<path fill-rule="evenodd" clip-rule="evenodd" d="M39.6136 33.0361V9.37417H43.5573V33.0361H39.6136Z" fill="#4C4C4C"/>
<path fill-rule="evenodd" clip-rule="evenodd" d="M72.1488 33.0361V9.37417H76.0925V33.0361H72.1488Z" fill="#4C4C4C"/>
</g>
<defs>
<clipPath id="clip0_526_182">
<rect width="151.831" height="70" fill="white" transform="translate(0.0804443 0.5)"/>
</clipPath>
</defs>
</svg>
