<svg width="119" height="71" viewBox="0 0 119 71" fill="none" xmlns="http://www.w3.org/2000/svg">
<path d="M4.14706 1.23705C0.505136 2.5818 0.634282 1.81022 0.453477 26.5448C0.298502 50.8385 0.298502 50.8605 3.19138 50.8605C4.43119 50.8605 4.48285 50.9708 4.48285 53.7484C4.48285 58.6645 6.36838 60.5604 11.2759 60.5604H14.2205L15.0987 62.8531C19.0506 73.0158 36.9503 73.0599 40.7472 62.9192L41.5479 60.7808H59.2409H76.9598L77.683 62.9192C81.1442 73.0379 99.4313 72.9938 103.383 62.8531L104.261 60.5604H109.324C117.899 60.5604 118.287 59.8108 118.028 43.4093C117.899 34.2165 117.718 31.9458 117.099 31.1743C114.903 28.5509 102.221 16.7568 101.007 16.2057C99.922 15.7427 97.3133 15.5884 90.2619 15.5884H80.9375V10.496C80.9375 4.60995 80.2918 2.8243 77.7347 1.50159C75.5134 0.333202 7.19492 0.112751 4.14706 1.23705ZM76.1849 4.65404C76.6499 5.05085 76.8048 10.4519 76.8048 26.2582V47.3333H40.6438H4.48285V26.2582C4.48285 10.4519 4.63782 5.05085 5.10275 4.65404C6.00677 3.88246 75.2809 3.88246 76.1849 4.65404ZM88.6863 28.2864C88.6863 41.1386 88.1955 40.7198 103.641 40.7198H113.999V48.4135C113.999 57.8047 114.154 57.5622 108.213 57.3859L104.081 57.2536L103.228 55.1593C101.007 49.6701 96.8484 47.6199 87.524 47.3995L80.9375 47.2451V33.1804V19.1156H84.8119H88.6863V28.2864ZM106.715 26.0598C113.87 32.9158 113.973 33.0261 113.999 35.0983V37.1926H103.693C91.1659 37.1926 92.3024 38.1846 92.3024 27.2943V19.1156H95.8927H99.4571L106.715 26.0598ZM16.6484 52.58C15.951 53.528 15.202 54.9609 14.9437 55.7766C14.5304 57.1213 14.3238 57.2756 12.2833 57.3859C9.18377 57.5843 8.61553 57.0111 8.61553 53.6823V50.8605H13.2648H17.9399L16.6484 52.58ZM32.0169 51.566C40.7472 55.3577 38.655 66.4023 29.0723 67.0857C22.2017 67.5707 17.7849 63.6026 18.5598 57.6725C19.2314 52.6021 26.6185 49.2512 32.0169 51.566ZM47.3595 54.1673V57.4741H44.4924C42.2194 57.4741 41.5995 57.3197 41.3929 56.7025C41.2379 56.2836 40.4372 54.7846 39.6107 53.3957L38.0867 50.8605H42.736H47.3595V54.1673ZM64.9234 54.1673V57.4741H58.2078H51.4921V54.1673V50.8605H58.2078H64.9234V54.1673ZM78.8712 53.3957C78.0446 54.7846 77.2439 56.2836 77.089 56.7025C76.8823 57.3418 76.2108 57.4741 72.9563 57.4741H69.056V54.1673V50.8605H74.7127H80.3951L78.8712 53.3957ZM94.8853 51.7423C101.162 54.4759 101.911 61.7508 96.2801 65.5866C93.723 67.3282 88.9188 67.703 86.1292 66.3803C75.1259 61.1997 83.7013 46.8704 94.8853 51.7423Z" fill="#4C4C4C"/>
<path d="M26.1794 54.235C21.3752 55.8663 20.8844 61.3776 25.3787 63.4499C30.932 66.0071 36.5628 59.5258 32.0943 55.712C30.5446 54.3673 27.8067 53.6839 26.1794 54.235ZM29.2531 58.1149C30.3379 59.2172 29.6922 60.3415 27.9875 60.3415C26.4119 60.3415 25.7662 59.4597 26.3861 58.1149C26.7477 57.2993 28.4524 57.2993 29.2531 58.1149Z" fill="#4C4C4C"/>
<path d="M88.6863 54.2338C83.9337 55.8431 83.443 61.5969 87.9114 63.3826C93.9555 65.8516 99.2505 59.4806 94.4462 55.5566C92.9998 54.3661 90.1844 53.7268 88.6863 54.2338ZM92.0441 59.0176C92.0441 60.186 91.8633 60.3403 90.4943 60.3403C88.8929 60.3403 88.273 59.4585 88.8929 58.0697C89.487 56.747 92.0441 57.5186 92.0441 59.0176Z" fill="#4C4C4C"/>
</svg>
