<svg width="117" height="71" viewBox="0 0 117 71" fill="none" xmlns="http://www.w3.org/2000/svg">
<g clip-path="url(#clip0_526_158)">
<path d="M16.547 1.41214C14.8099 2.42383 14.3136 5.59254 15.669 7.08145C16.127 7.59683 15.9361 8.89486 14.1419 16.8357C13.0156 21.8751 12.0802 26.38 12.0802 26.8572C12.0612 27.5062 11.6794 27.8689 10.5341 28.3461C9.6751 28.6707 8.47252 29.5678 7.8426 30.3314C7.0218 31.343 6.04827 31.9347 4.33031 32.5265L1.94423 33.3091L1.84879 43.8461L1.73425 54.383L4.96023 55.4329C7.95713 56.4064 8.20529 56.5781 8.39617 57.6662C11.393 73.5097 35.7692 73.9106 39.2624 58.1625C39.9496 55.051 40.8086 54.9174 41.0758 57.8762L41.2667 59.9759L45.9816 60.0904C51.5172 60.205 51.7464 60.0904 51.8227 57.3607C51.8608 55.5473 51.8991 55.6046 52.1663 58.1434C53.5598 71.3909 71.274 74.5214 76.9051 62.5147C78.0122 60.1477 78.0695 58.9069 77.5351 49.7636C77.3823 47.2057 77.4014 45.2777 77.5922 45.2777C77.7832 45.2777 80.971 48.7518 84.6742 53.0086C88.3774 57.2653 92.0041 61.3885 92.7295 62.1711L94.0467 63.6027H99.3534C102.828 63.6027 104.927 63.4309 105.481 63.1256C106.817 62.362 116.284 50.7752 116.284 49.878C116.284 48.9237 116.781 48.9808 108.821 49.0954L102.312 49.1718L101.109 47.2247C100.441 46.1367 99.6205 45.1632 99.3149 45.0486C98.3034 44.6477 94.772 46.9384 94.3139 48.2555C94.1039 48.9045 93.7985 49.5726 93.6458 49.7253C93.4739 49.878 89.7136 46.2512 85.2468 41.67L77.1532 33.3474L68.9452 30.9613L60.737 28.5943L60.6226 25.6737C60.5271 22.9441 60.4507 22.7532 59.5727 22.5241L58.6373 22.2951V15.3468V8.37946L59.8208 7.27233C61.4625 5.70707 61.8442 4.88626 61.2906 4.21816C60.6034 3.37826 60.298 3.51188 58.2364 5.43983L56.3466 7.19598V14.7551C56.3466 22.3141 56.3466 22.3141 55.4877 22.4478C54.7433 22.5432 54.6097 22.8486 54.4378 24.6429C54.1515 27.7544 52.1281 28.2316 50.9255 25.4828C48.7304 20.4434 47.4323 17.5229 45.3135 12.8462C43.1565 8.05496 43.0229 7.65411 43.5574 6.85238C44.569 5.30621 44.3018 3.11102 42.9465 1.9848L41.7821 0.992188L29.489 1.01128C21.8727 1.01128 16.9669 1.16398 16.547 1.41214ZM41.8012 3.97001C42.8129 5.87887 42.3547 5.95522 29.4317 5.95522C17.6924 5.95522 17.4442 5.93613 17.2151 5.17259C16.6233 3.34009 17.0433 3.28281 29.6609 3.28281C40.5413 3.28281 41.4575 3.34009 41.8012 3.97001ZM28.2865 18.1719V27.9071L21.3191 28.0025L14.3518 28.1171V27.2199C14.3518 26.3991 17.9214 9.84929 18.3604 8.70398C18.494 8.34129 19.7157 8.24585 23.4188 8.3222L28.2865 8.43674V18.1719ZM42.4884 12.0635C49.8184 28.3461 50.1811 29.2433 49.303 29.2433C47.8523 29.2433 45.2372 27.5444 45.4662 26.7617C46.1152 24.7193 46.1152 24.2803 45.4472 24.0321C44.1873 23.5358 40.1977 30.2741 41.0949 31.3813C41.8012 32.2211 42.5266 32.0112 43.1756 30.7704C43.9009 29.3579 43.9391 29.3579 46.9933 30.8467C50.8873 32.7747 50.4292 33.061 43.4809 33.061H37.468L35.3492 30.7704C33.9176 29.2242 32.8486 28.4225 32.0087 28.2507L30.768 28.0025V18.1147V8.22676L35.8074 8.3222L40.8468 8.43674L42.4884 12.0635ZM58.2556 26.2082C58.2556 27.4872 58.141 27.7544 57.5874 27.6398C56.5185 27.4489 56.4039 24.662 57.473 24.662C58.141 24.662 58.2556 24.9102 58.2556 26.2082ZM63.5049 31.763C68.277 33.1565 72.9347 34.4926 73.8509 34.7408C75.2825 35.1226 76.7142 36.4015 84.8078 44.5141C95.1919 54.9366 95.001 54.822 95.9555 50.9661C96.4137 49.1718 97.5399 47.6065 98.3988 47.5683C98.5325 47.5683 99.2005 48.4273 99.869 49.4581L101.091 51.3669L106.836 51.4624L112.581 51.5769L108.497 56.4445L104.431 61.3121H99.6965H94.9629L88.74 54.173C77.0578 40.8301 77.0005 40.7728 75.7216 40.3719C75.0344 40.1619 71.0449 38.9403 66.8454 37.6423C51.3646 32.8892 51.7654 33.061 51.7654 30.9994C51.7654 28.6324 52.9489 28.7088 63.5049 31.763ZM32.715 31.2476C33.2686 31.7248 34.2612 32.8319 34.9484 33.7291L36.1701 35.3516H44.0345H51.88L63.1804 38.8448C76.447 42.9489 75.4352 42.3762 75.4352 45.6976C75.4352 48.7709 75.5498 48.6945 73.3546 47.0339C66.3682 41.7081 56.4422 44.1514 53.0443 52.0541C52.2808 53.8294 51.7654 53.5812 51.7654 51.4624C51.7654 48.4082 51.5364 48.2937 46.0389 48.4082L41.2667 48.5228L41.0758 50.8134C40.8276 53.8485 39.9687 53.9439 39.377 51.0042C36.5137 36.7642 17.2723 33.9963 10.0187 46.7857L8.81612 48.9045L8.72068 41.3454C8.54888 29.7969 7.80443 30.4458 21.6054 30.4077C31.5506 30.3886 31.7415 30.4077 32.715 31.2476ZM6.3346 43.9415C6.3346 49.4963 6.18189 53.2949 5.97192 53.2949C5.78103 53.2949 5.18928 53.1231 4.63572 52.9132L3.6622 52.5504V43.9606C3.6622 34.7599 3.68129 34.6263 5.66651 34.6072C6.27734 34.588 6.3346 35.2753 6.3346 43.9415ZM29.4509 41.9944C36.3418 45.144 39.4151 53.1613 36.2655 59.785C29.9853 72.9943 10.5341 68.8139 10.5341 54.2302C10.5341 44.3614 20.4984 37.9095 29.4509 41.9944ZM70.1859 47.6829C76.8479 51.5769 77.7449 60.0904 72.0375 65.2444C65.4328 71.2 54.4569 66.1415 54.4569 57.1127C54.4569 49.0764 63.4094 43.7124 70.1859 47.6829ZM49.2839 54.2494V57.6853H46.2298H43.1756L43.061 54.6693C42.9083 50.4698 42.832 50.5652 46.3252 50.6989L49.2839 50.8134V54.2494Z" fill="#4C4C4C"/>
<mask id="mask0_526_158" style="mask-type:luminance" maskUnits="userSpaceOnUse" x="0" y="0" width="118" height="71">
<path d="M117.086 0.0078125H0.748413V70.9937H117.086V0.0078125Z" fill="white"/>
<path d="M16.5471 1.41409C14.81 2.42579 14.3137 5.59449 15.6691 7.0834C16.1271 7.59879 15.9363 8.89681 14.142 16.8377C13.0157 21.877 12.0803 26.382 12.0803 26.8591C12.0613 27.5082 11.6796 27.8709 10.5342 28.3481C9.67522 28.6726 8.47264 29.5697 7.84272 30.3333C7.02192 31.345 6.0484 31.9367 4.33043 32.5284L1.94436 33.3111L1.84891 43.848L1.73438 54.3849L4.96035 55.4348C7.95726 56.4083 8.20541 56.5801 8.39629 57.6681C11.3932 73.5117 35.7693 73.9125 39.2625 58.1644C39.9497 55.053 40.8087 54.9194 41.0759 57.8781L41.2668 59.9778L45.9817 60.0924C51.5174 60.2069 51.7465 60.0924 51.8228 57.3627C51.861 55.5493 51.8992 55.6066 52.1664 58.1454C53.5599 71.3928 71.2741 74.5233 76.9052 62.5166C78.0124 60.1497 78.0696 58.9089 77.5352 49.7655C77.3825 47.2076 77.4015 45.2797 77.5924 45.2797C77.7833 45.2797 80.9711 48.7538 84.6743 53.0105C88.3775 57.2672 92.0043 61.3904 92.7296 62.1731L94.0468 63.6047H99.3535C102.828 63.6047 104.927 63.4329 105.481 63.1275C106.817 62.3639 116.285 50.7772 116.285 49.88C116.285 48.9256 116.782 48.9828 108.821 49.0974L102.312 49.1738L101.109 47.2267C100.441 46.1386 99.6207 45.1651 99.315 45.0506C98.3035 44.6497 94.7721 46.9404 94.314 48.2574C94.104 48.9065 93.7986 49.5745 93.6459 49.7273C93.4741 49.88 89.7137 46.2532 85.2469 41.6719L77.1533 33.3493L68.9453 30.9632L60.7372 28.5962L60.6227 25.6756C60.5272 22.946 60.4508 22.7552 59.5728 22.526L58.6374 22.297V15.3488V8.38142L59.8209 7.27428C61.4626 5.70902 61.8443 4.88821 61.2907 4.22011C60.6036 3.38021 60.2981 3.51383 58.2366 5.44178L56.3468 7.19793V14.757C56.3468 22.316 56.3468 22.316 55.4878 22.4497C54.7434 22.5452 54.6098 22.8506 54.4379 24.6449C54.1516 27.7563 52.1282 28.2335 50.9256 25.4848C48.7305 20.4454 47.4324 17.5249 45.3136 12.8482C43.1566 8.05691 43.023 7.65606 43.5575 6.85433C44.5691 5.30816 44.3019 3.11297 42.9466 1.98675L41.7822 0.994141L29.4891 1.01323C21.8729 1.01323 16.967 1.16594 16.5471 1.41409ZM41.8014 3.97196C42.813 5.88082 42.3549 5.95717 29.4319 5.95717C17.6925 5.95717 17.4443 5.93808 17.2152 5.17454C16.6234 3.34204 17.0434 3.28477 29.661 3.28477C40.5415 3.28477 41.4577 3.34204 41.8014 3.97196ZM28.2866 18.1738V27.909L21.3193 28.0045L14.3519 28.119V27.2219C14.3519 26.4011 17.9215 9.85124 18.3605 8.70593C18.4941 8.34324 19.7159 8.24781 23.419 8.32416L28.2866 8.43869V18.1738ZM42.4885 12.0655C49.8185 28.3481 50.1812 29.2453 49.3031 29.2453C47.8524 29.2453 45.2373 27.5463 45.4663 26.7637C46.1153 24.7213 46.1153 24.2823 45.4473 24.0341C44.1874 23.5378 40.1979 30.276 41.095 31.3832C41.8014 32.223 42.5267 32.0131 43.1757 30.7723C43.9011 29.3598 43.9392 29.3598 46.9934 30.8486C50.8875 32.7766 50.4293 33.0629 43.4811 33.0629H37.4682L35.3493 30.7723C33.9177 29.2261 32.8488 28.4245 32.0089 28.2526L30.7681 28.0045V18.1166V8.22871L35.8075 8.32416L40.8469 8.43869L42.4885 12.0655ZM58.2557 26.2101C58.2557 27.4891 58.1411 27.7563 57.5875 27.6418C56.5186 27.4509 56.404 24.664 57.4731 24.664C58.1411 24.664 58.2557 24.9122 58.2557 26.2101ZM63.505 31.765C68.2771 33.1584 72.9348 34.4946 73.851 34.7427C75.2827 35.1246 76.7143 36.4035 84.8079 44.5161C95.192 54.9385 95.0012 54.8239 95.9556 50.968C96.4138 49.1738 97.54 47.6084 98.3989 47.5703C98.5326 47.5703 99.2007 48.4293 99.8691 49.4601L101.091 51.3689L106.837 51.4643L112.582 51.5789L108.497 56.4465L104.431 61.314H99.6966H94.963L88.7401 54.1749C77.0579 40.832 77.0006 40.7747 75.7217 40.3739C75.0345 40.1639 71.045 38.9422 66.8455 37.6443C51.3647 32.8912 51.7655 33.0629 51.7655 31.0014C51.7655 28.6344 52.949 28.7108 63.505 31.765ZM32.7152 31.2495C33.2688 31.7268 34.2613 32.8339 34.9486 33.7311L36.1702 35.3536H44.0347H51.8801L63.1805 38.8468C76.4471 42.9509 75.4354 42.3781 75.4354 45.6996C75.4354 48.7729 75.5499 48.6965 73.3547 47.0358C66.3683 41.7101 56.4423 44.1534 53.0444 52.0561C52.281 53.8313 51.7655 53.5832 51.7655 51.4643C51.7655 48.4102 51.5365 48.2956 46.039 48.4102L41.2668 48.5247L41.0759 50.8153C40.8278 53.8505 39.9688 53.9459 39.3771 51.0062C36.5138 36.7661 17.2725 33.9983 10.0188 46.7876L8.81625 48.9065L8.7208 41.3474C8.549 29.7988 7.80455 30.4478 21.6056 30.4096C31.5507 30.3906 31.7417 30.4096 32.7152 31.2495ZM6.33473 43.9435C6.33473 49.4982 6.18202 53.2969 5.97205 53.2969C5.78115 53.2969 5.18941 53.125 4.63585 52.9151L3.66232 52.5524V43.9625C3.66232 34.7618 3.68141 34.6283 5.66663 34.6091C6.27746 34.59 6.33473 35.2773 6.33473 43.9435ZM29.451 41.9964C36.342 45.146 39.4152 53.1633 36.2656 59.7869C29.9855 72.9962 10.5342 68.8159 10.5342 54.2322C10.5342 44.3634 20.4985 37.9115 29.451 41.9964ZM70.1861 47.6848C76.848 51.5789 77.7451 60.0924 72.0376 65.2463C65.433 71.202 54.4571 66.1434 54.4571 57.1146C54.4571 49.0783 63.4096 43.7144 70.1861 47.6848ZM49.2841 54.2513V57.6872H46.2299H43.1757L43.0612 54.6712C42.9084 50.4717 42.8321 50.5672 46.3253 50.7008L49.2841 50.8153V54.2513Z" fill="black"/>
</mask>
<g mask="url(#mask0_526_158)">
<path d="M16.5471 1.41409C14.81 2.42579 14.3137 5.59449 15.6691 7.0834C16.1271 7.59879 15.9363 8.89681 14.142 16.8377C13.0157 21.877 12.0803 26.382 12.0803 26.8591C12.0613 27.5082 11.6796 27.8709 10.5342 28.3481C9.67522 28.6726 8.47264 29.5697 7.84272 30.3333C7.02192 31.345 6.0484 31.9367 4.33043 32.5284L1.94436 33.3111L1.84891 43.848L1.73438 54.3849L4.96035 55.4348C7.95726 56.4083 8.20541 56.5801 8.39629 57.6681C11.3932 73.5117 35.7693 73.9125 39.2625 58.1644C39.9497 55.053 40.8087 54.9194 41.0759 57.8781L41.2668 59.9778L45.9817 60.0924C51.5174 60.2069 51.7465 60.0924 51.8228 57.3627C51.861 55.5493 51.8992 55.6066 52.1664 58.1454C53.5599 71.3928 71.2741 74.5233 76.9052 62.5166C78.0124 60.1497 78.0696 58.9089 77.5352 49.7655C77.3825 47.2076 77.4015 45.2797 77.5924 45.2797C77.7833 45.2797 80.9711 48.7538 84.6743 53.0105C88.3775 57.2672 92.0043 61.3904 92.7296 62.1731L94.0468 63.6047H99.3535C102.828 63.6047 104.927 63.4329 105.481 63.1275C106.817 62.3639 116.285 50.7772 116.285 49.88C116.285 48.9256 116.782 48.9828 108.821 49.0974L102.312 49.1738L101.109 47.2267C100.441 46.1386 99.6207 45.1651 99.315 45.0506C98.3035 44.6497 94.7721 46.9404 94.314 48.2574C94.104 48.9065 93.7986 49.5745 93.6459 49.7273C93.4741 49.88 89.7137 46.2532 85.2469 41.6719L77.1533 33.3493L68.9453 30.9632L60.7372 28.5962L60.6227 25.6756C60.5272 22.946 60.4508 22.7552 59.5728 22.526L58.6374 22.297V15.3488V8.38142L59.8209 7.27428C61.4626 5.70902 61.8443 4.88821 61.2907 4.22011C60.6036 3.38021 60.2981 3.51383 58.2366 5.44178L56.3468 7.19793V14.757C56.3468 22.316 56.3468 22.316 55.4878 22.4497C54.7434 22.5452 54.6098 22.8506 54.4379 24.6449C54.1516 27.7563 52.1282 28.2335 50.9256 25.4848C48.7305 20.4454 47.4324 17.5249 45.3136 12.8482C43.1566 8.05691 43.023 7.65606 43.5575 6.85433C44.5691 5.30816 44.3019 3.11297 42.9466 1.98675L41.7822 0.994141L29.4891 1.01323C21.8729 1.01323 16.967 1.16594 16.5471 1.41409ZM41.8014 3.97196C42.813 5.88082 42.3549 5.95717 29.4319 5.95717C17.6925 5.95717 17.4443 5.93808 17.2152 5.17454C16.6234 3.34204 17.0434 3.28477 29.661 3.28477C40.5415 3.28477 41.4577 3.34204 41.8014 3.97196ZM28.2866 18.1738V27.909L21.3193 28.0045L14.3519 28.119V27.2219C14.3519 26.4011 17.9215 9.85124 18.3605 8.70593C18.4941 8.34324 19.7159 8.24781 23.419 8.32416L28.2866 8.43869V18.1738ZM42.4885 12.0655C49.8185 28.3481 50.1812 29.2453 49.3031 29.2453C47.8524 29.2453 45.2373 27.5463 45.4663 26.7637C46.1153 24.7213 46.1153 24.2823 45.4473 24.0341C44.1874 23.5378 40.1979 30.276 41.095 31.3832C41.8014 32.223 42.5267 32.0131 43.1757 30.7723C43.9011 29.3598 43.9392 29.3598 46.9934 30.8486C50.8875 32.7766 50.4293 33.0629 43.4811 33.0629H37.4682L35.3493 30.7723C33.9177 29.2261 32.8488 28.4245 32.0089 28.2526L30.7681 28.0045V18.1166V8.22871L35.8075 8.32416L40.8469 8.43869L42.4885 12.0655ZM58.2557 26.2101C58.2557 27.4891 58.1411 27.7563 57.5875 27.6418C56.5186 27.4509 56.404 24.664 57.4731 24.664C58.1411 24.664 58.2557 24.9122 58.2557 26.2101ZM63.505 31.765C68.2771 33.1584 72.9348 34.4946 73.851 34.7427C75.2827 35.1246 76.7143 36.4035 84.8079 44.5161C95.192 54.9385 95.0012 54.8239 95.9556 50.968C96.4138 49.1738 97.54 47.6084 98.3989 47.5703C98.5326 47.5703 99.2007 48.4293 99.8691 49.4601L101.091 51.3689L106.837 51.4643L112.582 51.5789L108.497 56.4465L104.431 61.314H99.6966H94.963L88.7401 54.1749C77.0579 40.832 77.0006 40.7747 75.7217 40.3739C75.0345 40.1639 71.045 38.9422 66.8455 37.6443C51.3647 32.8912 51.7655 33.0629 51.7655 31.0014C51.7655 28.6344 52.949 28.7108 63.505 31.765ZM32.7152 31.2495C33.2688 31.7268 34.2613 32.8339 34.9486 33.7311L36.1702 35.3536H44.0347H51.8801L63.1805 38.8468C76.4471 42.9509 75.4354 42.3781 75.4354 45.6996C75.4354 48.7729 75.5499 48.6965 73.3547 47.0358C66.3683 41.7101 56.4423 44.1534 53.0444 52.0561C52.281 53.8313 51.7655 53.5832 51.7655 51.4643C51.7655 48.4102 51.5365 48.2956 46.039 48.4102L41.2668 48.5247L41.0759 50.8153C40.8278 53.8505 39.9688 53.9459 39.3771 51.0062C36.5138 36.7661 17.2725 33.9983 10.0188 46.7876L8.81625 48.9065L8.7208 41.3474C8.549 29.7988 7.80455 30.4478 21.6056 30.4096C31.5507 30.3906 31.7417 30.4096 32.7152 31.2495ZM6.33473 43.9435C6.33473 49.4982 6.18202 53.2969 5.97205 53.2969C5.78115 53.2969 5.18941 53.125 4.63585 52.9151L3.66232 52.5524V43.9625C3.66232 34.7618 3.68141 34.6283 5.66663 34.6091C6.27746 34.59 6.33473 35.2773 6.33473 43.9435ZM29.451 41.9964C36.342 45.146 39.4152 53.1633 36.2656 59.7869C29.9855 72.9962 10.5342 68.8159 10.5342 54.2322C10.5342 44.3634 20.4985 37.9115 29.451 41.9964ZM70.1861 47.6848C76.848 51.5789 77.7451 60.0924 72.0376 65.2463C65.433 71.202 54.4571 66.1434 54.4571 57.1146C54.4571 49.0783 63.4096 43.7144 70.1861 47.6848ZM49.2841 54.2513V57.6872H46.2299H43.1757L43.0612 54.6712C42.9084 50.4717 42.8321 50.5672 46.3253 50.7008L49.2841 50.8153V54.2513Z" stroke="#4C4C4C" stroke-width="0.4"/>
</g>
<path d="M46.5194 40.7185C45.5929 40.7472 44.8554 40.7509 44.2799 40.7166C43.7067 40.6825 43.2838 40.6103 42.9925 40.4811C42.6945 40.3489 42.5261 40.1526 42.4835 39.8781C42.4429 39.6165 42.5197 39.2985 42.6636 38.9241C42.7335 38.739 42.9217 38.6065 43.1577 38.5099C43.3981 38.4114 43.7112 38.3407 44.0673 38.2937C44.7806 38.1994 45.6857 38.1973 46.5742 38.2693C47.4625 38.3412 48.3407 38.4877 48.9993 38.6933C49.328 38.7961 49.6078 38.9153 49.8076 39.051C50.0038 39.1844 50.1461 39.3504 50.1461 39.551C50.1461 39.7788 50.1442 39.9784 50.0745 40.1363C49.9991 40.307 49.8536 40.4148 49.6132 40.4877C49.377 40.5593 49.034 40.6021 48.54 40.6346C48.0441 40.6672 47.3874 40.6899 46.5194 40.7185Z" fill="#4C4C4C" stroke="#4C4C4C" stroke-width="0.2"/>
<path d="M62.8573 50.5514C67.0716 48.8618 71.8879 52.3755 71.8879 57.114C71.8879 64.2987 62.1073 66.5871 58.9686 60.1157C57.1287 56.3199 58.8179 52.1749 62.8573 50.5514ZM68.2648 54.1107C65.3856 51.2129 60.8357 53.0619 60.8357 57.114C60.8357 58.1769 61.0847 59.0377 61.5847 59.7159C62.0849 60.3944 62.8433 60.8999 63.8792 61.2388C68.0763 62.6191 71.3973 57.2245 68.2648 54.1107Z" fill="#4C4C4C" stroke="#4C4C4C" stroke-width="0.2"/>
<path d="M21.0069 46.3741C26.1773 44.3225 32.0864 48.589 32.0864 54.3424C32.0864 63.0663 20.0867 65.845 16.2359 57.9872C13.9786 53.3783 16.051 48.3454 21.0069 46.3741ZM27.6412 50.6958C24.1088 47.1772 18.5266 49.4224 18.5266 54.3424C18.5266 55.6331 18.8321 56.6783 19.4455 57.5018C20.0593 58.3256 20.9897 58.9394 22.2606 59.351C27.4099 61.0269 31.4845 54.4766 27.6412 50.6958Z" fill="#4C4C4C" stroke="#4C4C4C" stroke-width="0.2"/>
</g>
<defs>
<clipPath id="clip0_526_158">
<rect width="116.338" height="70" fill="white" transform="translate(0.633667 0.5)"/>
</clipPath>
</defs>
</svg>
