<svg width="72" height="71" viewBox="0 0 72 71" fill="none" xmlns="http://www.w3.org/2000/svg">
<g clip-path="url(#clip0_526_141)">
<path d="M29.0196 0.143485C41.103 -2.48542 55.1729 3.12466 62.8663 13.6129C82.7601 40.7251 56.0829 78.8221 24.8806 67.8735C-7.87617 56.3621 -4.90482 7.46252 29.0196 0.143485ZM56.9511 58.0599C74.9062 40.3853 67.1756 9.62036 43.2334 3.41381C22.2473 -2.02967 2.43602 15.8264 4.69277 38.2025C7.30847 64.2641 38.6015 76.1627 56.9511 58.0599Z" fill="#4C4C4C" stroke="#4C4C4C" stroke-width="0.3"/>
<path d="M30.8029 7.9083C40.6137 5.84125 52.0375 10.2523 58.284 18.499C74.4364 39.8168 52.7764 69.7717 27.4423 61.163C0.846164 52.1118 3.25869 13.6631 30.8029 7.9083ZM53.4813 53.4468C68.0595 39.5496 61.7828 15.3598 42.3435 10.4797C25.3042 6.19959 9.21892 20.2395 11.0512 37.8333C13.175 58.325 38.5827 67.6806 53.4813 53.4468Z" fill="#4C4C4C" stroke="#4C4C4C" stroke-width="0.3"/>
<path d="M31.2097 13.2739C33.824 12.7066 37.1652 12.7116 39.946 13.1027C41.3367 13.2983 42.5943 13.5914 43.5547 13.9615C44.0348 14.1465 44.4455 14.3526 44.7625 14.5784C45.078 14.8032 45.3124 15.0561 45.4208 15.3388C45.4621 15.447 45.4562 15.5814 45.4314 15.7171C45.4057 15.8578 45.3554 16.0231 45.286 16.2071C45.147 16.5754 44.9248 17.0354 44.6442 17.5525C44.0823 18.5878 43.2782 19.867 42.4121 21.1284C41.5458 22.3898 40.6153 23.6369 39.8001 24.6076C39.3927 25.0927 39.0122 25.5109 38.6818 25.8278C38.3566 26.1398 38.0639 26.3696 37.8331 26.4567C37.1677 26.7073 36.5942 26.8631 36.046 26.8556C35.4922 26.848 34.9767 26.674 34.4261 26.2886C33.8796 25.9061 33.2966 25.3138 32.6027 24.4674C31.9079 23.62 31.096 22.5103 30.0928 21.0871C29.0255 19.5716 28.223 18.4046 27.7046 17.491C27.1906 16.5855 26.9348 15.8947 27.0093 15.3433C27.0871 14.7678 27.5133 14.3934 28.2059 14.0959C28.8977 13.7988 29.9001 13.5586 31.2097 13.2739ZM29.9579 16.1338C29.825 16.2625 29.7787 16.319 29.7728 16.4035C29.7659 16.5024 29.8136 16.6714 30.017 17.0168C30.4108 17.6857 31.3096 18.8947 33.0959 21.2975L33.1863 21.4191C33.9968 22.5079 34.5951 23.3096 35.1102 23.8127C35.6247 24.3152 36.0183 24.4826 36.4253 24.3847C36.6372 24.3338 36.8685 24.2078 37.1348 23.9894C37.4008 23.7711 37.6948 23.4665 38.0323 23.0677C38.7081 22.2695 39.5429 21.1132 40.6615 19.5619C41.2693 18.7134 41.7255 18.0665 42.0439 17.5641C42.365 17.0574 42.5346 16.7147 42.5857 16.4704C42.6104 16.3519 42.6051 16.2657 42.5825 16.1988C42.5602 16.1327 42.5167 16.0721 42.4412 16.0117C42.2818 15.8839 42.0099 15.779 41.6014 15.647C40.1671 15.2066 37.5228 15.0626 35.0841 15.1684C33.8673 15.2212 32.7095 15.3359 31.7881 15.5046C31.3272 15.5889 30.9287 15.6862 30.6129 15.7947C30.2928 15.9047 30.0744 16.0207 29.9579 16.1338Z" fill="#4C4C4C" stroke="#4C4C4C" stroke-width="0.3"/>
<path d="M48.2263 17.4139L48.2276 17.4133C48.6371 17.1849 49.1262 17.2226 49.6399 17.4321C50.1541 17.6418 50.7149 18.0316 51.2928 18.5472C52.4498 19.5793 53.7036 21.1414 54.8248 22.8724C55.9465 24.6041 56.9407 26.5129 57.5753 28.2429C57.8924 29.1078 58.121 29.9313 58.2297 30.6679C58.3381 31.4025 58.3289 32.0615 58.1603 32.591C58.0447 32.9476 57.7687 33.2043 57.3118 33.3702C56.8611 33.5338 56.2207 33.6155 55.3442 33.6237C53.589 33.6401 50.8308 33.3612 46.6162 32.7906L46.6151 32.7904C44.7606 32.5231 43.2489 31.3494 42.8559 29.7607C42.8276 29.6486 42.8251 29.5073 42.8382 29.35C42.8515 29.19 42.882 29.0026 42.9265 28.7933C43.0159 28.3745 43.164 27.8579 43.3545 27.2797C43.7358 26.1228 44.2906 24.7087 44.8962 23.3177C45.5018 21.9267 46.1597 20.5556 46.7478 19.4848C47.0418 18.9497 47.3196 18.4871 47.5659 18.1338C47.689 17.9572 47.8057 17.8059 47.9139 17.6857C48.0205 17.5672 48.1255 17.4713 48.2263 17.4139ZM55.6389 30.1549C55.4879 29.1369 54.8576 27.5603 54.0233 25.9671C53.1907 24.377 52.1658 22.7903 51.239 21.7507C50.7944 21.2532 50.4493 20.8746 50.1725 20.5959C49.8938 20.3151 49.6936 20.1449 49.5386 20.0556C49.3889 19.9694 49.3024 19.9697 49.2331 19.9966C49.1482 20.0296 49.0546 20.1145 48.9201 20.2774C48.8673 20.3444 48.7645 20.5216 48.6201 20.7987C48.4778 21.0717 48.3016 21.4288 48.1035 21.8424C47.7075 22.6695 47.2265 23.719 46.7611 24.766C46.2956 25.813 45.8462 26.8563 45.5135 27.6708C45.347 28.0783 45.2102 28.4273 45.1152 28.6904C45.0677 28.8221 45.0313 28.9306 45.0068 29.0134C44.9947 29.0548 44.9859 29.0882 44.9804 29.1139C44.9776 29.1267 44.9759 29.1367 44.9749 29.1441C44.9739 29.1512 44.9738 29.1541 44.9738 29.1541C44.9738 29.2559 45.0208 29.3705 45.1391 29.4984C45.2578 29.6268 45.4397 29.7589 45.6858 29.8905C46.1775 30.1536 46.8968 30.3996 47.7935 30.6125C49.5845 31.0374 52.0521 31.3221 54.7432 31.3546L55.8246 31.3686L55.6389 30.1549Z" fill="#4C4C4C" stroke="#4C4C4C" stroke-width="0.3"/>
<path d="M21.5169 18.2218C22.1079 17.802 22.6076 17.4996 23.0647 17.3887C23.5379 17.274 23.9593 17.3659 24.375 17.706C24.7795 18.0369 25.179 18.6026 25.6355 19.4314C26.0938 20.2633 26.6178 21.3761 27.2661 22.8153C27.9469 24.3278 28.4641 25.5063 28.8317 26.4519C29.1987 27.3964 29.4198 28.1171 29.5038 28.7122C29.5884 29.3117 29.5342 29.7867 29.3506 30.2364C29.169 30.6808 28.8645 31.0911 28.4678 31.5655C28.1402 31.952 27.8219 32.2208 27.417 32.4135C27.0154 32.6046 26.5372 32.7172 25.8961 32.8076C24.3753 33.0201 21.8971 33.2692 19.7253 33.4507C18.639 33.5414 17.6279 33.6154 16.8502 33.6596C16.4615 33.6817 16.13 33.6964 15.8762 33.702C15.6294 33.7074 15.4391 33.7049 15.3453 33.6871C14.9047 33.6008 14.6028 33.3205 14.4271 32.9109C14.2544 32.5086 14.2008 31.98 14.2378 31.3735C14.3118 30.1583 14.7531 28.5735 15.4338 26.9134C16.7937 23.5966 19.1351 19.9172 21.5169 18.2218ZM27.2342 29.5037L27.2356 29.4994C27.2355 29.4997 27.2355 29.4997 27.2356 29.4994C27.2359 29.4979 27.2377 29.4893 27.238 29.4705C27.2384 29.4491 27.2369 29.4202 27.2327 29.3832C27.2242 29.3091 27.2061 29.2116 27.1781 29.0921C27.1221 28.8537 27.0296 28.5392 26.9087 28.1695C26.6668 27.4308 26.3143 26.4814 25.9217 25.4974C25.134 23.5244 24.1932 21.4346 23.6644 20.6251C23.488 20.3585 23.355 20.1834 23.2326 20.0862C23.1739 20.0396 23.1233 20.0157 23.077 20.0062C23.0317 19.997 22.9805 19.9995 22.9164 20.0213C22.7802 20.0679 22.6023 20.1958 22.3482 20.4454C22.0976 20.6914 21.7884 21.0397 21.3886 21.5046C20.0545 23.0491 18.6748 25.3324 17.7327 27.3322C17.2618 28.332 16.903 29.255 16.7135 29.975C16.6186 30.3357 16.568 30.6387 16.5645 30.8716C16.5613 31.0974 16.6027 31.2256 16.6558 31.2879C16.6703 31.2921 16.6939 31.297 16.7287 31.3016C16.7985 31.3108 16.8978 31.3171 17.0252 31.3199C17.2791 31.3257 17.6303 31.3178 18.0503 31.2984C18.8896 31.2598 19.994 31.1765 21.1241 31.0706C22.2541 30.9647 23.4078 30.8365 24.3454 30.7085C24.8144 30.6444 25.2281 30.5805 25.5573 30.5197C25.8902 30.4581 26.1252 30.4017 26.2449 30.3546C26.4726 30.2635 26.7029 30.1179 26.8871 29.9568C27.0754 29.792 27.1972 29.627 27.2342 29.5037ZM16.6454 31.2843C16.6454 31.2843 16.6459 31.2846 16.647 31.285L16.6454 31.2843Z" fill="#4C4C4C"/>
<path d="M27.2356 29.4994L27.2342 29.5037C27.1972 29.627 27.0754 29.792 26.8871 29.9568C26.7029 30.1179 26.4726 30.2635 26.2449 30.3546C26.1252 30.4017 25.8902 30.4581 25.5573 30.5197C25.2281 30.5805 24.8144 30.6444 24.3454 30.7085C23.4078 30.8365 22.2541 30.9647 21.1241 31.0706C19.994 31.1765 18.8896 31.2598 18.0503 31.2984C17.6303 31.3178 17.2791 31.3257 17.0252 31.3199C16.8978 31.3171 16.7985 31.3108 16.7287 31.3016C16.6939 31.297 16.6703 31.2921 16.6558 31.2879C16.6027 31.2256 16.5613 31.0974 16.5645 30.8716C16.568 30.6387 16.6186 30.3357 16.7135 29.975C16.903 29.255 17.2618 28.332 17.7327 27.3322C18.6748 25.3324 20.0545 23.0491 21.3886 21.5046C21.7884 21.0397 22.0976 20.6914 22.3482 20.4454C22.6023 20.1958 22.7802 20.0679 22.9164 20.0213C22.9805 19.9995 23.0317 19.997 23.077 20.0062C23.1233 20.0157 23.1739 20.0396 23.2326 20.0862C23.355 20.1834 23.488 20.3585 23.6644 20.6251C24.1932 21.4346 25.134 23.5244 25.9217 25.4974C26.3143 26.4814 26.6668 27.4308 26.9087 28.1695C27.0296 28.5392 27.1221 28.8537 27.1781 29.0921C27.2061 29.2116 27.2242 29.3091 27.2327 29.3832C27.2369 29.4202 27.2384 29.4491 27.238 29.4705C27.2377 29.4893 27.2359 29.4979 27.2356 29.4994ZM27.2356 29.4994C27.2355 29.4997 27.2355 29.4997 27.2356 29.4994ZM21.5169 18.2218C22.1079 17.802 22.6076 17.4996 23.0647 17.3887C23.5379 17.274 23.9593 17.3659 24.375 17.706C24.7795 18.0369 25.179 18.6026 25.6355 19.4314C26.0938 20.2633 26.6178 21.3761 27.2661 22.8153C27.9469 24.3278 28.4641 25.5063 28.8317 26.4519C29.1987 27.3964 29.4198 28.1171 29.5038 28.7122C29.5884 29.3117 29.5342 29.7867 29.3506 30.2364C29.169 30.6808 28.8645 31.0911 28.4678 31.5655C28.1402 31.952 27.8219 32.2208 27.417 32.4135C27.0154 32.6046 26.5372 32.7172 25.8961 32.8076C24.3753 33.0201 21.8971 33.2692 19.7253 33.4507C18.639 33.5414 17.6279 33.6154 16.8502 33.6596C16.4615 33.6817 16.13 33.6964 15.8762 33.702C15.6294 33.7074 15.4391 33.7049 15.3453 33.6871C14.9047 33.6008 14.6028 33.3205 14.4271 32.9109C14.2544 32.5086 14.2008 31.98 14.2378 31.3735C14.3118 30.1583 14.7531 28.5735 15.4338 26.9134C16.7937 23.5966 19.1351 19.9172 21.5169 18.2218ZM16.6454 31.2843C16.6454 31.2843 16.6459 31.2846 16.647 31.285L16.6454 31.2843Z" stroke="#4C4C4C" stroke-width="0.3"/>
<path d="M51.2182 51.9325C50.6272 52.3523 50.1275 52.6547 49.6704 52.7656C49.1972 52.8803 48.7758 52.7884 48.3602 52.4483C47.9556 52.1174 47.5561 51.5517 47.0996 50.7229C46.6413 49.891 46.1173 48.7782 45.4691 47.339C44.7882 45.8265 44.271 44.648 43.9034 43.7024C43.5364 42.7579 43.3153 42.0372 43.2313 41.4421C43.1467 40.8426 43.2009 40.3676 43.3845 39.9179C43.5661 39.4735 43.8706 39.0632 44.2673 38.5888C44.5949 38.2023 44.9132 37.9335 45.3181 37.7408C45.7197 37.5497 46.1979 37.4371 46.839 37.3467C48.3598 37.1342 50.838 36.8851 53.0098 36.7036C54.0961 36.6129 55.1072 36.5389 55.8849 36.4947C56.2736 36.4726 56.6051 36.4579 56.8589 36.4523C57.1057 36.4469 57.296 36.4494 57.3898 36.4672C57.8304 36.5535 58.1324 36.8338 58.308 37.2434C58.4807 37.6457 58.5343 38.1743 58.4973 38.7808C58.4233 39.996 57.982 41.5808 57.3013 43.2409C55.9415 46.5577 53.6 50.2371 51.2182 51.9325ZM45.5009 40.6506L45.4995 40.6549C45.4996 40.6546 45.4996 40.6546 45.4995 40.6549C45.4992 40.6564 45.4974 40.665 45.4972 40.6838C45.4967 40.7052 45.4982 40.7341 45.5024 40.7711C45.5109 40.8452 45.529 40.9427 45.557 41.0621C45.613 41.3006 45.7055 41.6151 45.8265 41.9848C46.0683 42.7235 46.4208 43.6729 46.8134 44.6569C47.6011 46.6299 48.5419 48.7197 49.0707 49.5292C49.2471 49.7958 49.3801 49.9709 49.5025 50.0681C49.5612 50.1147 49.6118 50.1386 49.6581 50.1481C49.7034 50.1573 49.7546 50.1548 49.8187 50.133C49.9549 50.0864 50.1328 49.9585 50.3869 49.7089C50.6375 49.4629 50.9467 49.1146 51.3465 48.6497C52.6806 47.1052 54.0603 44.8219 55.0024 42.8221C55.4733 41.8223 55.8321 40.8993 56.0216 40.1793C56.1165 39.8186 56.1671 39.5156 56.1706 39.2827C56.1738 39.0569 56.1324 38.9287 56.0793 38.8664C56.0648 38.8622 56.0412 38.8573 56.0064 38.8527C55.9366 38.8435 55.8373 38.8372 55.71 38.8344C55.456 38.8286 55.1048 38.8365 54.6848 38.8559C53.8455 38.8945 52.7411 38.9778 51.611 39.0837C50.4811 39.1896 49.3273 39.3178 48.3897 39.4458C47.9207 39.5099 47.507 39.5738 47.1778 39.6346C46.8449 39.6962 46.6099 39.7526 46.4902 39.7997C46.2625 39.8908 46.0322 40.0364 45.848 40.1975C45.6597 40.3622 45.5379 40.5273 45.5009 40.6506ZM56.0897 38.87C56.0897 38.87 56.0892 38.8697 56.0882 38.8693L56.0897 38.87Z" fill="#4C4C4C"/>
<path d="M45.4995 40.6549L45.5009 40.6506C45.5379 40.5273 45.6597 40.3622 45.848 40.1975C46.0322 40.0364 46.2625 39.8908 46.4902 39.7997C46.6099 39.7526 46.8449 39.6962 47.1778 39.6346C47.507 39.5738 47.9207 39.5099 48.3897 39.4458C49.3273 39.3178 50.4811 39.1896 51.611 39.0837C52.7411 38.9778 53.8455 38.8945 54.6848 38.8559C55.1048 38.8365 55.456 38.8286 55.71 38.8344C55.8373 38.8372 55.9366 38.8435 56.0064 38.8527C56.0412 38.8573 56.0648 38.8622 56.0793 38.8664C56.1324 38.9287 56.1738 39.0569 56.1706 39.2827C56.1671 39.5156 56.1165 39.8186 56.0216 40.1793C55.8321 40.8993 55.4733 41.8223 55.0024 42.8221C54.0603 44.8219 52.6806 47.1052 51.3465 48.6497C50.9467 49.1146 50.6375 49.4629 50.3869 49.7089C50.1328 49.9585 49.9549 50.0864 49.8187 50.133C49.7546 50.1548 49.7034 50.1573 49.6581 50.1481C49.6118 50.1386 49.5612 50.1147 49.5025 50.0681C49.3801 49.9709 49.2471 49.7958 49.0707 49.5292C48.5419 48.7197 47.6011 46.6299 46.8134 44.6569C46.4208 43.6729 46.0683 42.7235 45.8265 41.9848C45.7055 41.6151 45.613 41.3006 45.557 41.0621C45.529 40.9427 45.5109 40.8452 45.5024 40.7711C45.4982 40.7341 45.4967 40.7052 45.4972 40.6838C45.4974 40.665 45.4992 40.6564 45.4995 40.6549ZM45.4995 40.6549C45.4996 40.6546 45.4996 40.6546 45.4995 40.6549ZM51.2182 51.9325C50.6272 52.3523 50.1275 52.6547 49.6704 52.7656C49.1972 52.8803 48.7758 52.7884 48.3602 52.4483C47.9556 52.1174 47.5561 51.5517 47.0996 50.7229C46.6413 49.891 46.1173 48.7782 45.4691 47.339C44.7882 45.8265 44.271 44.648 43.9034 43.7024C43.5364 42.7579 43.3153 42.0372 43.2313 41.4421C43.1467 40.8426 43.2009 40.3676 43.3845 39.9179C43.5661 39.4735 43.8706 39.0632 44.2673 38.5888C44.5949 38.2023 44.9132 37.9335 45.3181 37.7408C45.7197 37.5497 46.1979 37.4371 46.839 37.3467C48.3598 37.1342 50.838 36.8851 53.0098 36.7036C54.0961 36.6129 55.1072 36.5389 55.8849 36.4947C56.2736 36.4726 56.6051 36.4579 56.8589 36.4523C57.1057 36.4469 57.296 36.4494 57.3898 36.4672C57.8304 36.5535 58.1324 36.8338 58.308 37.2434C58.4807 37.6457 58.5343 38.1743 58.4973 38.7808C58.4233 39.996 57.982 41.5808 57.3013 43.2409C55.9415 46.5577 53.6 50.2371 51.2182 51.9325ZM56.0897 38.87C56.0897 38.87 56.0892 38.8697 56.0882 38.8693L56.0897 38.87Z" stroke="#4C4C4C" stroke-width="0.3"/>
<path d="M13.8909 39.0098C13.8001 38.2906 13.7695 37.7073 13.8878 37.2521C14.0102 36.7808 14.2903 36.4528 14.7864 36.2471C15.2691 36.0469 15.9565 35.962 16.9026 35.9511C17.8523 35.9402 19.0807 36.0041 20.6554 36.1127C22.3102 36.2271 23.5932 36.3279 24.6002 36.4507C25.6061 36.5734 26.3457 36.719 26.9099 36.9261C27.4783 37.1348 27.8714 37.4069 28.181 37.7812C28.4868 38.1512 28.7047 38.6134 28.9354 39.1872C29.1212 39.6585 29.2078 40.066 29.1864 40.5139C29.1651 40.9581 29.0384 41.4328 28.8152 42.0405C28.2842 43.4813 27.3329 45.7832 26.4669 47.7832C26.0337 48.7835 25.6213 49.7096 25.2928 50.4159C25.1286 50.7689 24.985 51.068 24.87 51.2944C24.7582 51.5145 24.6661 51.681 24.6061 51.7552C24.322 52.1028 23.9323 52.2366 23.4882 52.1979C23.0521 52.16 22.5608 51.9576 22.0437 51.6385C21.0077 50.9992 19.8193 49.8615 18.6777 48.4773C16.3967 45.7119 14.26 41.91 13.8909 39.0098ZM26.5354 39.3004L26.5323 39.2971C26.5325 39.2974 26.5325 39.2974 26.5323 39.2971C26.531 39.2961 26.5243 39.2905 26.5079 39.2814C26.4892 39.2708 26.463 39.2586 26.4285 39.2448C26.3591 39.2172 26.2647 39.1872 26.1462 39.1554C25.9095 39.0921 25.5887 39.0251 25.2057 38.957C24.4403 38.8212 23.4371 38.6834 22.3843 38.5646C20.2732 38.3268 17.9869 38.1687 17.0236 38.2524C16.7053 38.2819 16.4881 38.3164 16.3446 38.3784C16.2758 38.4081 16.2309 38.4414 16.2006 38.4778C16.1711 38.5133 16.1491 38.5597 16.1381 38.6264C16.1147 38.7684 16.1435 38.9857 16.2434 39.3276C16.3418 39.6647 16.5027 40.1017 16.7237 40.6737C17.4546 42.5792 18.8153 44.8739 20.1329 46.6489C20.7916 47.5364 21.4356 48.2886 21.9807 48.7958C22.2537 49.0498 22.4969 49.2375 22.7006 49.3506C22.898 49.4602 23.0306 49.4842 23.1106 49.4668C23.1212 49.456 23.1366 49.4375 23.1571 49.4091C23.1982 49.3519 23.2506 49.2673 23.3133 49.1564C23.4384 48.9353 23.5973 48.622 23.7787 48.2427C24.1411 47.4847 24.5894 46.4719 25.0299 45.4259C25.4704 44.38 25.9025 43.3026 26.2325 42.4157C26.3976 41.972 26.5367 41.5772 26.6386 41.2583C26.7417 40.9358 26.803 40.702 26.818 40.5743C26.8453 40.3306 26.8257 40.0588 26.7707 39.8204C26.7145 39.5766 26.6266 39.3912 26.5354 39.3004ZM23.1025 49.4743C23.1025 49.4743 23.103 49.474 23.1039 49.4733L23.1025 49.4743Z" fill="#4C4C4C"/>
<path d="M26.5323 39.2971L26.5354 39.3004C26.6266 39.3912 26.7145 39.5766 26.7707 39.8204C26.8257 40.0588 26.8453 40.3306 26.818 40.5743C26.803 40.702 26.7417 40.9358 26.6386 41.2583C26.5367 41.5772 26.3976 41.972 26.2325 42.4157C25.9025 43.3026 25.4704 44.38 25.0299 45.4259C24.5894 46.4719 24.1411 47.4847 23.7787 48.2427C23.5973 48.622 23.4384 48.9353 23.3133 49.1564C23.2506 49.2673 23.1982 49.3519 23.1571 49.4091C23.1366 49.4375 23.1212 49.456 23.1106 49.4668C23.0306 49.4842 22.898 49.4602 22.7006 49.3506C22.4969 49.2375 22.2537 49.0498 21.9807 48.7958C21.4356 48.2886 20.7916 47.5364 20.1329 46.6489C18.8153 44.8739 17.4546 42.5792 16.7237 40.6737C16.5027 40.1017 16.3418 39.6647 16.2434 39.3276C16.1435 38.9857 16.1147 38.7684 16.1381 38.6264C16.1491 38.5597 16.1711 38.5133 16.2006 38.4778C16.2309 38.4414 16.2758 38.4081 16.3446 38.3784C16.4881 38.3164 16.7053 38.2819 17.0236 38.2524C17.9869 38.1687 20.2732 38.3268 22.3843 38.5646C23.4371 38.6834 24.4403 38.8212 25.2057 38.957C25.5887 39.0251 25.9095 39.0921 26.1462 39.1554C26.2647 39.1872 26.3591 39.2172 26.4285 39.2448C26.463 39.2586 26.4892 39.2708 26.5079 39.2814C26.5243 39.2905 26.531 39.2961 26.5323 39.2971ZM26.5323 39.2971C26.5325 39.2974 26.5325 39.2974 26.5323 39.2971ZM13.8909 39.0098C13.8001 38.2906 13.7695 37.7073 13.8878 37.2521C14.0102 36.7808 14.2903 36.4528 14.7864 36.2471C15.2691 36.0469 15.9565 35.962 16.9026 35.9511C17.8523 35.9402 19.0807 36.0041 20.6554 36.1127C22.3102 36.2271 23.5932 36.3279 24.6002 36.4507C25.6061 36.5734 26.3457 36.719 26.9099 36.9261C27.4783 37.1348 27.8714 37.4069 28.181 37.7812C28.4868 38.1512 28.7047 38.6134 28.9354 39.1872C29.1212 39.6585 29.2078 40.066 29.1864 40.5139C29.1651 40.9581 29.0384 41.4328 28.8152 42.0405C28.2842 43.4813 27.3329 45.7832 26.4669 47.7832C26.0337 48.7835 25.6213 49.7096 25.2928 50.4159C25.1286 50.7689 24.985 51.068 24.87 51.2944C24.7582 51.5145 24.6661 51.681 24.6061 51.7552C24.322 52.1028 23.9323 52.2366 23.4882 52.1979C23.0521 52.16 22.5608 51.9576 22.0437 51.6385C21.0077 50.9992 19.8193 49.8615 18.6777 48.4773C16.3967 45.7119 14.26 41.91 13.8909 39.0098ZM23.1025 49.4743C23.1025 49.4743 23.103 49.474 23.1039 49.4733L23.1025 49.4743Z" stroke="#4C4C4C" stroke-width="0.3"/>
<path d="M34.8199 30.7442L34.8214 30.7438C34.8996 30.7218 34.9731 30.701 35.0423 30.6815C35.5533 30.5369 35.8355 30.457 36.1171 30.457C36.3987 30.457 36.681 30.5369 37.192 30.6815C37.2612 30.701 37.3345 30.7218 37.4126 30.7437C39.9485 31.4432 40.9452 33.6374 40.6463 35.6476C40.3475 37.6572 38.7521 39.4982 36.1171 39.4982C33.615 39.4982 32.0937 37.6507 31.7959 35.6476C31.498 33.6443 32.4182 31.4462 34.8199 30.7442ZM33.9003 34.9811C33.8851 35.9914 34.5523 36.7543 35.3937 37.0649C36.2349 37.3756 37.2225 37.2253 37.8439 36.4374C38.3711 35.7685 38.5408 35.1164 38.4051 34.5406C38.2692 33.9631 37.8178 33.4259 37.0263 33.0065C36.3729 32.661 35.5978 32.7582 34.9766 33.1479C34.3557 33.5374 33.9079 34.2077 33.9003 34.9811Z" fill="#4C4C4C" stroke="#4C4C4C" stroke-width="0.3"/>
<path d="M27.2034 54.8916C27.1255 54.7733 27.099 54.623 27.1015 54.4634C27.104 54.302 27.1365 54.1159 27.1918 53.9122C27.3023 53.5044 27.5102 53.0043 27.7868 52.449C28.3407 51.3373 29.1809 49.9831 30.109 48.6665C31.0372 47.3499 32.0569 46.0658 32.9711 45.0952C33.428 44.61 33.8613 44.2003 34.2458 43.9035C34.6241 43.6115 34.9766 43.4115 35.2687 43.378C36.2162 43.2708 36.9187 43.3008 37.5685 43.5719C38.2157 43.8419 38.7924 44.3436 39.5053 45.1384C40.3769 46.1088 41.9025 48.1956 43.2073 50.1119C43.8605 51.0712 44.4603 51.9909 44.8974 52.7104C45.1157 53.0698 45.2946 53.3813 45.4193 53.6236C45.4816 53.7447 45.5316 53.8508 45.5664 53.9384C45.5987 54.0197 45.6262 54.1045 45.6262 54.1744C45.6262 54.6684 45.3385 55.0919 44.8787 55.4448C44.4189 55.7976 43.769 56.0947 42.9963 56.3389C41.4494 56.8278 39.3725 57.1157 37.2334 57.1904C35.0936 57.2651 32.8815 57.1267 31.0625 56.7572C30.1532 56.5724 29.3375 56.329 28.6769 56.0229C28.0186 55.718 27.5003 55.3444 27.2034 54.8916ZM27.2034 54.8916C27.2034 54.8915 27.2034 54.8917 27.2034 54.8916ZM38.8528 48.0004C38.1696 47.084 37.6402 46.4299 37.1548 46.0606C36.9146 45.8779 36.6931 45.7713 36.4765 45.7341C36.2621 45.6974 36.0408 45.7266 35.7961 45.8352C35.2964 46.057 34.7137 46.6023 33.9421 47.5532C33.1743 48.4994 32.2357 49.8259 31.0203 51.5838C30.57 52.2387 30.242 52.7234 30.0498 53.0971C29.8536 53.4787 29.8261 53.6951 29.8934 53.8414C29.9632 53.9934 30.1621 54.1331 30.6032 54.2788C31.0343 54.4211 31.648 54.555 32.4785 54.7309C34.277 55.1181 36.7277 55.1556 38.7871 54.9466C39.8163 54.8421 40.7412 54.6768 41.4338 54.4658C41.7805 54.3602 42.0634 54.2448 42.2708 54.1231C42.4804 54 42.5921 53.8825 42.632 53.7816C42.6379 53.7628 42.6424 53.7229 42.6275 53.649C42.6123 53.5739 42.5796 53.4758 42.5238 53.3497C42.4122 53.0975 42.2173 52.753 41.921 52.2911C41.3288 51.3684 40.3451 49.9983 38.8528 48.0004Z" fill="#4C4C4C"/>
<path d="M27.2034 54.8916C27.1255 54.7733 27.099 54.623 27.1015 54.4634C27.104 54.302 27.1365 54.1159 27.1918 53.9122C27.3023 53.5044 27.5102 53.0043 27.7868 52.449C28.3407 51.3373 29.1809 49.9831 30.109 48.6665C31.0372 47.3499 32.0569 46.0658 32.9711 45.0952C33.428 44.61 33.8613 44.2003 34.2458 43.9035C34.6241 43.6115 34.9766 43.4115 35.2687 43.378C36.2162 43.2708 36.9187 43.3008 37.5685 43.5719C38.2157 43.8419 38.7924 44.3436 39.5053 45.1384C40.3769 46.1088 41.9025 48.1956 43.2073 50.1119C43.8605 51.0712 44.4603 51.9909 44.8974 52.7104C45.1157 53.0698 45.2946 53.3813 45.4193 53.6236C45.4816 53.7447 45.5316 53.8508 45.5664 53.9384C45.5987 54.0197 45.6262 54.1045 45.6262 54.1744C45.6262 54.6684 45.3385 55.0919 44.8787 55.4448C44.4189 55.7976 43.769 56.0947 42.9963 56.3389C41.4494 56.8278 39.3725 57.1157 37.2334 57.1904C35.0936 57.2651 32.8815 57.1267 31.0625 56.7572C30.1532 56.5724 29.3375 56.329 28.6769 56.0229C28.0186 55.718 27.5003 55.3444 27.2034 54.8916ZM27.2034 54.8916L27.327 54.8104M27.2034 54.8916C27.2034 54.8917 27.2034 54.8915 27.2034 54.8916ZM38.8528 48.0004C38.1696 47.084 37.6402 46.4299 37.1548 46.0606C36.9146 45.8779 36.6931 45.7713 36.4765 45.7341C36.2621 45.6974 36.0408 45.7266 35.7961 45.8352C35.2964 46.057 34.7137 46.6023 33.9421 47.5532C33.1743 48.4994 32.2357 49.8259 31.0203 51.5838C30.57 52.2387 30.242 52.7234 30.0498 53.0971C29.8536 53.4787 29.8261 53.6951 29.8934 53.8414C29.9632 53.9934 30.1621 54.1331 30.6032 54.2788C31.0343 54.4211 31.648 54.555 32.4785 54.7309C34.277 55.1181 36.7277 55.1556 38.7871 54.9466C39.8163 54.8421 40.7412 54.6768 41.4338 54.4658C41.7805 54.3602 42.0634 54.2448 42.2708 54.1231C42.4804 54 42.5921 53.8825 42.632 53.7816C42.6379 53.7628 42.6424 53.7229 42.6275 53.649C42.6123 53.5739 42.5796 53.4758 42.5238 53.3497C42.4122 53.0975 42.2173 52.753 41.921 52.2911C41.3288 51.3684 40.3451 49.9983 38.8528 48.0004Z" stroke="#4C4C4C" stroke-width="0.3"/>
</g>
<defs>
<clipPath id="clip0_526_141">
<rect width="70.9859" height="70" fill="white" transform="translate(0.97168 0.5)"/>
</clipPath>
</defs>
</svg>
