<svg width="108" height="71" viewBox="0 0 108 71" fill="none" xmlns="http://www.w3.org/2000/svg">
<path d="M64.9337 0.988718C62.957 4.17474 65.5384 10.6631 67.6314 7.80262C68.2825 6.89565 69.7011 8.47703 70.6081 11.1282L71.1197 12.6398L68.0267 12.5235C64.2593 12.4072 62.8872 14.5002 66.1663 15.3374C67.6314 15.7328 67.7011 15.8491 67.8407 18.1281C68.0035 20.849 67.8639 20.7793 73.0499 21.5002C77.3522 22.1048 76.6778 21.2676 80.2592 30.4303C83.8173 39.5698 83.7243 38.7559 81.4917 40.407C76.608 43.9884 73.8406 49.8953 76.8639 50.2441C77.9569 50.3837 78.2825 50.0814 79.2592 48.1279C80.3522 45.9884 83.701 42.4302 84.6312 42.4302C85.9801 42.4302 85.9568 45.1512 84.5847 46.4535C77.5615 53.1278 82.6778 64.5231 92.3521 63.7324C105.096 62.6626 103.492 43.8256 90.6544 43.8256C88.98 43.8256 88.4219 43.1512 88.3987 41.0814C88.3987 40.4303 94.2126 40.5465 95.887 41.2442C97.0265 41.7093 98.2823 40.2675 97.7009 39.1745C97.0265 37.8954 94.4451 37.2442 90.5847 37.3605C85.2359 37.5001 84.1196 35.8024 88.5149 34.221C91.6544 33.1047 91.7242 32.4768 89.3056 28.3373C85.7708 22.3374 85.4219 21.9653 82.8406 21.9653H80.5848L79.2824 18.5932C77.7708 14.6398 77.0034 13.5933 75.5848 13.5933C74.7243 13.5933 74.4918 13.2677 74.236 11.5468C73.8871 9.15144 71.7244 5.6631 69.5383 4.01195C68.7011 3.38405 67.8872 2.33754 67.7477 1.70964C67.4453 0.546861 65.5151 0.0584923 64.9337 0.988718ZM75.0267 17.1514C75.7476 17.5932 75.329 18.2444 74.329 18.2444C72.5151 18.2211 71.1895 17.6863 71.1895 16.9653C71.1895 16.3142 73.8871 16.4537 75.0267 17.1514ZM85.4452 28.4536C87.0033 31.035 86.9103 31.7094 85.0964 31.7327C84.4219 31.7327 82.3522 27.4536 82.3522 26.0815C82.3522 24.849 84.0964 26.1978 85.4452 28.4536ZM94.887 48.3837C99.0497 51.4767 98.8404 57.3604 94.4451 59.7092C88.5614 62.8487 82.1661 56.1046 85.6312 50.4302C86.887 48.3604 87.4219 48.6628 88.8405 52.2209C90.0963 55.3836 91.3521 56.2441 92.5847 54.7557C93.0963 54.1511 92.98 53.5232 91.9568 50.8953C91.2823 49.1744 90.7242 47.5697 90.7242 47.3604C90.7242 46.7325 93.6312 47.4535 94.887 48.3837Z" fill="#4C4C4C"/>
<path d="M2.58541 18.2194C2.14356 19.6613 5.67841 24.5217 8.07374 25.7543L10.0272 26.7775L6.02725 27.7775C1.23659 29.01 0.95752 29.1496 0.95752 30.5682C0.95752 31.2891 1.32961 31.7775 2.07379 32.0333L3.21332 32.4286L2.09705 34.9867C0.79473 38.0332 0.655196 40.01 1.72496 40.4286C3.05053 40.9402 3.81796 39.9634 5.60865 35.4286L7.35282 31.0333L11.3993 29.9635L15.469 28.8938L21.4457 32.8705C25.8643 35.7774 27.3759 37.0332 27.1666 37.5449C26.9806 38.0565 26.6085 38.1728 25.9108 37.9169C18.9341 35.3588 9.44582 39.4751 5.98074 46.5215C-2.25176 63.2423 18.5853 78.4283 32.5387 65.8702L34.8177 63.8237H51.3525C68.8407 63.8237 69.7244 63.7307 70.6779 61.6609C72.5383 57.5447 68.143 54.2424 62.6547 55.6145C59.6082 56.3819 60.771 58.7075 64.2128 58.7075C66.7244 58.7075 68.3988 59.4749 67.6081 60.2656C67.4454 60.4284 62.6082 60.5679 56.8873 60.5679H46.4455L38.934 56.0563L31.4224 51.5215L33.2828 50.9634C36.2363 50.0796 36.5386 50.1959 38.3293 52.8936C41.1432 57.1261 44.1665 55.9866 41.4921 51.7075L40.0502 49.3587L41.0735 48.9634C41.9572 48.6145 42.3758 48.8471 43.7711 50.4285C46.213 53.1959 48.9106 51.8703 46.8409 48.8936C46.1897 47.9634 46.3758 47.7308 51.0036 43.7541C55.9338 39.4983 56.0501 39.3355 55.5617 38.0565C54.9803 36.5681 53.2362 37.3588 48.9106 41.0565C44.9572 44.4518 43.4921 45.3122 43.7944 44.0332C43.8409 43.8006 46.0037 41.7774 48.585 39.5448L53.2827 35.4751H56.0966C59.2361 35.4519 64.8407 37.0797 64.5384 37.9402C64.4454 38.2425 63.1431 38.5449 61.6082 38.6146C57.5617 38.8239 53.0966 43.2192 55.0036 45.1262C55.8175 45.9401 56.0501 45.8704 58.3989 43.8239C60.3059 42.1727 60.8175 41.9634 62.9338 41.9634C65.05 41.9634 65.5384 41.7774 67.0035 40.3355L68.6779 38.7076L71.5616 39.6844C75.3058 40.9402 75.4686 40.8472 77.7709 36.2193C79.7011 32.3123 79.8406 31.0565 78.3988 30.4984C77.6313 30.2193 75.8406 31.5217 75.8406 32.3356C75.8406 32.5914 75.3058 33.7077 74.6779 34.8007L73.5151 36.7774L66.6779 34.4984C60.2129 32.3356 59.5617 32.1961 54.9803 32.1961C50.585 32.1961 49.9106 32.0798 48.0734 31.01L46.0269 29.8007L47.6083 28.0566C48.4688 27.1031 49.7711 25.2426 50.4688 23.9403C53.5617 18.2427 62.0966 19.731 69.0965 27.1496C71.957 30.1728 73.5151 30.9868 74.236 29.8472C74.8639 28.8007 73.8639 27.0101 71.0267 24.1729C62.2594 15.4055 51.3525 14.8009 47.0734 22.8473C44.9804 26.731 44.1897 27.0798 37.12 27.0798H31.3526L24.655 22.9403L17.9341 18.8008L12.097 18.0566C4.25982 17.0567 2.9575 17.0799 2.58541 18.2194ZM13.0737 21.5682C18.4923 22.2892 28.3992 28.2194 31.4456 32.5449C33.9805 36.1495 41.6084 38.5681 42.5618 36.0565C43.0269 34.824 41.5386 33.7542 38.5851 33.103C33.748 32.0798 32.9573 30.3356 37.3526 30.3356C39.934 30.3356 45.9804 33.0333 48.306 35.2193C48.492 35.3821 41.1432 41.4983 40.7479 41.4983C40.5851 41.4983 35.12 37.9402 28.6317 33.5914C19.9574 27.8008 15.7016 25.2426 12.6318 24.0333C6.2598 21.4752 6.39934 20.6613 13.0737 21.5682ZM35.8875 42.4983L40.213 45.4053L38.8409 45.9867C36.7247 46.8936 35.934 46.7308 35.1665 45.2657C34.7945 44.5215 33.5387 43.0099 32.3759 41.8937C28.4224 38.0797 29.655 38.289 35.8875 42.4983ZM24.4224 41.0099L25.6085 41.4751L24.5155 43.9169C23.7945 45.5215 23.1899 46.3122 22.7713 46.1727C18.376 44.7774 14.4458 46.6843 13.7249 50.5913C13.2597 52.9633 14.2597 54.1029 19.1899 56.8703C24.3294 59.754 24.1201 59.5912 23.2597 60.1261C21.2132 61.4284 16.7248 59.94 15.283 57.4982C13.8411 55.0563 11.6551 55.0563 11.6551 57.4982C11.6551 62.1028 20.1667 65.3121 25.3759 62.6842C27.4689 61.6377 27.7015 61.5912 28.9573 62.2423C30.8177 63.1958 30.4457 63.8005 26.9573 65.6144C14.8179 71.9632 2.37611 58.1493 9.74815 46.5215C12.6551 41.9402 19.7946 39.2658 24.4224 41.0099ZM30.9108 45.2425C32.9108 47.4285 32.8177 47.7308 30.0503 48.4285C26.1434 49.4052 25.8876 49.1262 27.4922 45.5215C28.655 42.8937 28.7945 42.8704 30.9108 45.2425ZM29.2131 54.1261C40.2828 60.7075 40.1433 60.5679 36.1433 60.5679C32.841 60.5679 17.2365 52.9633 17.2365 51.3587C17.2365 47.7541 19.3527 48.2424 29.2131 54.1261Z" fill="#4C4C4C"/>
<path d="M69.2591 42.1962C68.5149 43.4752 68.0033 43.8241 66.9103 43.8241C62.1662 43.8241 61.5615 50.8938 66.2126 52.1031C67.3754 52.4054 67.7475 52.8007 67.9335 53.8472C68.1894 55.3588 70.0498 56.0565 70.7707 54.917C72.0265 52.9403 70.3754 49.7077 67.794 49.0333C65.794 48.5217 65.8638 47.3822 67.9335 47.0798C70.1661 46.7543 70.9103 46.2194 72.0498 44.1031C73.794 40.8008 71.1661 38.9869 69.2591 42.1962Z" fill="#4C4C4C"/>
<path d="M100.119 41.5926C99.3055 42.4066 99.4218 42.8484 100.957 44.5926C108.957 53.7088 103.329 66.825 91.4218 66.8482C83.794 66.8482 78.9801 62.6622 77.9568 55.1041C77.701 53.2902 77.3987 52.6158 76.701 52.4065C75.0731 51.8949 74.3057 53.0576 74.6545 55.5925C77.422 76.5226 107.701 74.8947 107.701 53.8251C107.701 46.5926 102.887 38.8252 100.119 41.5926Z" fill="#4C4C4C"/>
<path d="M58.2826 46.2173C57.0268 47.4731 58.2826 49.2638 60.0268 48.7056C60.771 48.4731 60.9803 48.0777 60.864 47.1475C60.7012 45.7754 59.2594 45.2405 58.2826 46.2173Z" fill="#4C4C4C"/>
<path d="M49.934 49.8452C47.1201 51.5661 47.0736 56.0079 49.841 57.9381C51.2596 58.9381 54.3991 58.9149 55.6782 57.8916C60.6549 53.8452 55.4224 46.4964 49.934 49.8452ZM54.0038 52.9382C54.841 53.9149 54.0038 55.2172 52.5387 55.2172C51.2829 55.2172 50.7945 53.9149 51.6782 52.8684C52.3991 51.9847 53.2596 52.008 54.0038 52.9382Z" fill="#4C4C4C"/>
<path d="M60.3755 50.8493C58.5616 51.8958 60.0267 54.5934 61.8639 53.6167C63.0732 52.9655 62.5848 50.1283 61.2825 50.3609C61.236 50.3609 60.8174 50.5702 60.3755 50.8493Z" fill="#4C4C4C"/>
</svg>
