<svg width="116" height="71" viewBox="0 0 116 71" fill="none" xmlns="http://www.w3.org/2000/svg">
<path d="M18.6225 1.1743C14.9739 2.87094 14.429 4.65458 16.9641 6.54699C18.4567 7.63457 18.8595 8.22187 18.8595 9.33121C18.8595 10.8103 17.0589 24.0789 16.8456 24.1877C16.7746 24.2094 15.2346 24.6662 13.3866 25.21C6.49212 27.1894 -0.473393 32.6708 2.5829 33.7367C3.10413 33.9324 4.14659 33.4104 5.68659 32.2358C8.19796 30.2782 8.81396 30.2564 9.83273 31.9748C10.4487 33.0406 10.4013 33.1711 9.09827 34.1065C-3.45861 43.0899 -1.61062 61.7529 12.4863 68.2567C23.4558 73.3249 36.368 69.5401 42.0779 59.5778C42.9308 58.0769 43.6889 56.7935 43.7363 56.7283C44.1865 56.1845 45.3711 57.4026 45.4895 58.5119L45.6317 59.8823L53.8529 59.9911C62.4295 60.1216 63.4009 59.9475 63.4009 58.3162C63.4009 57.8594 63.4482 57.4896 63.5193 57.4678C65.9833 57.1416 81.2411 56.3368 81.4306 56.5543C81.5728 56.7065 81.9519 57.8159 82.2836 59.0122C85.9559 72.3678 106.45 74.5865 113.534 62.3837C117.632 55.3144 115.026 45.1999 108.227 41.8501L106.995 41.241V35.4551V29.6691L105.218 28.5815C102.114 26.6891 96.9254 25.7755 87.5195 25.4493L79.0377 25.1665V20.0548V14.9432L80.4593 14.4864C82.9706 13.6816 81.9519 11.8109 79.0377 11.8109C76.3368 11.8109 76.1947 12.1807 76.1947 19.076V25.297H69.1344C62.2399 25.297 62.0741 25.2752 61.8135 24.3182C61.2686 22.491 61.5055 21.969 63.1876 21.2512C64.1116 20.8379 65.2252 19.9243 65.6753 19.2065C66.1255 18.4887 66.8599 17.7926 67.3101 17.6621C70.5085 16.7051 69.1107 9.13545 65.5095 7.89559C64.3249 7.48231 63.7089 6.50348 63.1639 4.2413C63.0218 3.567 62.2636 2.4359 61.5292 1.73985L60.155 0.499998H40.1114C23.0767 0.499998 19.8308 0.608757 18.6225 1.1743ZM59.5864 3.74101C61.4344 5.78567 58.2596 6.15545 38.524 6.1337C20.4232 6.1337 18.8595 5.98144 18.8595 4.21955C18.8595 2.95795 58.4729 2.50116 59.5864 3.74101ZM61.0079 9.74449C60.3683 11.3759 61.3633 15.1607 62.8322 16.7268C63.5193 17.4229 63.4956 17.5751 62.5716 18.4017C61.0079 19.8591 60.3683 19.163 59.2073 14.7039C58.5913 12.3982 57.999 10.136 57.8569 9.65749C57.6673 9.00493 57.9753 8.65691 59.2073 8.20012C61.2212 7.3953 61.7424 7.85209 61.0079 9.74449ZM27.5782 13.2248C27.4124 15.6827 27.1281 19.0542 26.9622 20.7291L26.6779 23.7744H23.4795C19.6887 23.7744 19.9256 24.5139 21.0155 15.7697C21.9868 8.15662 21.6315 8.76567 25.0194 8.76567H27.9099L27.5782 13.2248ZM56.151 14.4211C58.0938 21.3599 58.1175 21.0119 55.843 20.6856C54.1372 20.4246 53.9003 20.5116 53.379 21.5557C52.2892 23.7526 50.6544 22.2953 51.5784 19.9243C52.2892 18.1842 51.8864 16.9008 50.7255 17.1183C49.6831 17.2924 45.1815 24.6227 45.5606 25.5145C45.9871 26.5368 47.6692 26.2758 48.5458 25.0577C49.92 23.1218 51.0572 24.688 49.92 26.9719L49.0908 28.6685L53.1184 34.498C57.6673 41.067 57.6673 40.7625 53.1658 41.1105L49.8015 41.3933L48.0957 38.2175C47.1243 36.4121 45.1105 33.7584 43.4757 32.1271C41.2012 29.8431 40.7748 29.2123 41.5092 29.2123C42.6702 29.2123 43.6889 28.1247 43.3335 27.2547C43.1203 26.7544 42.2674 26.6021 39.7323 26.6021H36.3917V21.4904C36.368 15.4 36.368 15.3782 33.0748 15.2042L30.4687 15.0737L30.6345 12.2459C30.7293 10.6798 30.9188 9.26596 31.0373 9.09194C31.1557 8.89618 36.5102 8.80917 42.9308 8.87442L54.6347 8.98318L56.151 14.4211ZM65.5332 12.0719C66.315 13.8338 66.4572 15.2912 65.8175 15.2912C65.2252 15.2912 64.5618 14.3994 63.9458 12.7462C62.9981 10.1578 64.3959 9.57048 65.5332 12.0719ZM33.5486 21.5992C33.5486 25.5798 33.4302 25.732 30.9662 24.862C28.5496 24.0354 29.4025 17.9014 31.9613 17.9014H33.5486V21.5992ZM58.7335 24.5139C59.7996 26.1018 60.6999 38.8048 59.7286 38.7613C59.539 38.7613 57.8095 36.4339 55.9141 33.5844L52.455 28.4075L53.9714 25.9496C55.5113 23.4263 57.5726 22.8173 58.7335 24.5139ZM29.9711 27.4939C37.1499 29.5386 42.6938 33.9977 45.9397 40.3492L47.8588 44.0905L52.9526 43.786C62.8322 43.1987 63.2113 42.8289 63.0929 33.8889L63.0218 28.3422H67.0021H70.9824V31.9965C70.9824 34.6938 71.1719 35.7596 71.6931 36.1729C73.1384 37.2822 73.8254 35.9554 73.8254 31.9965C73.8254 28.3858 73.8491 28.3422 75.0101 28.3422C76.1473 28.3422 76.1947 28.4293 76.1947 31.344C76.1947 34.4545 76.858 35.6508 78.327 35.1505C78.8719 34.9548 79.0377 34.15 79.0377 31.6268C79.0377 28.4075 79.0614 28.3422 80.2223 28.3422C81.3122 28.3422 81.407 28.4945 81.407 30.4304C81.407 34.9765 84.3685 35.3028 84.6291 30.8002L84.7712 28.3422H89.8414C95.1721 28.364 100.242 29.1253 102.683 30.2782L104.151 30.9742V35.2158V39.4356L99.0577 39.4574C90.2442 39.4791 84.25 43.5685 82.2125 50.9641C81.407 53.8136 77.6162 55.0752 77.6162 52.5084C77.6162 44.7431 86.7614 36.5427 96.6884 35.4116C100.456 34.9983 101.285 33.0406 97.802 32.7796C87.7565 32.0183 76.242 41.4803 74.8442 51.6166L74.5362 53.7918L71.9301 54.0963C70.5085 54.2703 67.4285 54.5314 65.1304 54.6836C61.0316 54.9664 60.8895 55.0099 60.3919 56.228L59.8707 57.4896H54.0661H48.2378V56.402C48.2378 55.5319 47.8588 55.1622 46.3425 54.6184L44.4471 53.9223V50.2463C44.4471 36.4557 29.7342 26.4716 15.8742 30.8437L13.1496 31.692L12.202 30.4957C11.0173 28.9513 11.0173 28.8425 12.581 28.277C17.6512 26.3628 24.8536 26.0366 29.9711 27.4939ZM30.3502 34.1065C43.4757 39.6532 45.5843 56.489 34.141 64.2326C17.8644 75.2173 -3.43492 58.9252 5.44966 42.2851C9.76165 34.1717 21.4419 30.3434 30.3502 34.1065ZM104.839 43.1769C118.225 49.3109 113.415 67.7999 98.4654 67.6912C85.1266 67.5824 79.559 51.9429 90.1968 44.5038C94.3192 41.6108 100.29 41.0888 104.839 43.1769Z" fill="#4C4C4C"/>
<path d="M47.8351 46.7654C46.2951 48.4403 47.5508 48.81 54.3268 48.7013L60.7948 48.5708V47.4832V46.3956L54.5874 46.2651C49.7068 46.1781 48.2616 46.2868 47.8351 46.7654Z" fill="#4C4C4C"/>
<path d="M48.0246 51.2025C46.0818 52.9862 47.9535 53.6387 54.7058 53.4865C60.6288 53.356 62.0267 52.8122 60.5815 51.2243C59.6812 50.202 49.1381 50.202 48.0246 51.2025Z" fill="#4C4C4C"/>
<path d="M18.457 38.084C3.6967 42.5214 6.98992 62.7288 22.5083 62.707C37.1501 62.6853 41.4858 44.9358 28.3366 38.7801C25.8252 37.6055 21.1579 37.2792 18.457 38.084ZM27.3889 41.3903C35.3021 45.1316 35.2547 55.3332 27.3179 58.9657C17.9831 63.2291 8.34038 54.3761 12.9841 45.8059C15.685 40.8247 22.0345 38.8671 27.3889 41.3903Z" fill="#4C4C4C"/>
<path d="M94.9116 47.0045C91.4999 48.4401 89.4624 51.4418 89.4624 54.9656C89.5335 63.8186 102.754 66.6246 106.947 58.6634C110.762 51.4418 102.754 43.6765 94.9116 47.0045ZM102.09 49.8757C107.445 53.095 105.076 60.5993 98.7024 60.5993C94.7458 60.5993 92.1159 57.9674 92.4476 54.3131C92.8504 49.9192 98.1101 47.483 102.09 49.8757Z" fill="#4C4C4C"/>
</svg>
