<svg width="131" height="71" viewBox="0 0 131 71" fill="none" xmlns="http://www.w3.org/2000/svg">
<path d="M105.544 1.22736C106.369 1.89337 106.369 1.94094 105.327 4.08171C103.157 8.4108 103.157 8.36323 98.7282 8.64866L94.6905 8.88653L92.8671 13.4059C91.8251 15.8797 90.7397 18.1156 90.3924 18.401C90.045 18.6865 88.786 22.0165 87.5703 25.7748C86.3547 29.5806 85.0956 33.5766 84.7049 34.7184L84.0102 36.8116L87.1796 36.4786C88.8728 36.3358 91.2173 36.1931 92.3461 36.1456L94.43 36.098V24.2524V12.3593L95.6891 10.9797L96.9481 9.60011H106.977C112.448 9.60011 117.397 9.7904 117.961 10.0283C119.872 10.837 120.783 12.3593 124.126 20.4942L127.469 28.6291L127.339 38.8572L127.209 49.0377L128.729 49.1804L130.248 49.3231L130.378 52.7959C130.465 54.9843 130.292 56.5541 129.988 56.9823C129.25 57.9338 122.52 57.9338 121.782 56.9347C121.391 56.4114 120.349 56.2211 118.092 56.2211C116.095 56.2211 114.792 55.9833 114.488 55.6027C114.228 55.3173 113.75 53.1289 113.359 50.7979C112.231 43.4717 110.754 42.2824 102.419 42.0445L96.7311 41.8543L95.8193 43.6144C95.2983 44.5659 94.8642 46.0406 94.8642 46.9445V48.562L96.9047 47.2775C99.6833 45.5649 104.546 45.4698 107.281 47.0397C111.449 49.4659 113.533 53.1289 113.533 58.124C113.533 65.4502 108.931 70.4929 102.245 70.4929C97.6428 70.4453 94.2998 68.2094 92.1724 63.69C91.6948 62.5959 91.1738 61.9774 91.087 62.2628C90.9133 62.7386 87.8308 62.8813 77.6281 62.8813C64.777 62.8813 64.3863 62.8337 64.1692 61.9298C63.9955 61.2163 63.5614 60.9784 62.5194 60.9784C61.2603 60.9784 61.0432 61.1687 60.392 63.0716C59.5671 65.4502 56.528 68.7803 54.2704 69.8269C52.143 70.7783 47.2804 70.6832 45.153 69.589C42.9822 68.4948 39.9866 65.0221 39.3353 62.7386C38.8577 61.1687 38.6407 60.9784 37.3816 60.9784C36.0791 60.9784 35.862 61.1687 35.2108 63.1192C34.3425 65.5929 30.9126 69.2084 28.5682 70.0647C26.0501 70.9686 21.1441 70.3977 19.1035 68.9706C16.4986 67.2104 14.6751 64.6415 13.8936 61.8347C13.0253 58.5998 13.0687 57.2202 14.1107 53.9852C14.5883 52.5105 14.8488 51.1785 14.7619 51.0357C14.6317 50.9406 13.7634 51.6542 12.8082 52.6532C11.5492 53.9852 11.0716 54.9367 10.9848 56.1736C10.8545 57.6483 10.6809 57.8862 9.76913 57.8862C8.68373 57.8862 8.68373 57.791 8.55348 53.7949C8.46665 50.6552 8.5969 49.561 9.07447 49.1328C9.59546 48.6571 9.85596 48.7047 10.5506 49.4659C11.4189 50.4173 11.4189 50.4173 13.1556 48.4193C14.241 47.2299 14.979 45.9455 15.0659 45.0416L15.1961 43.6144L46.6726 43.3766L78.1491 43.1387L78.2793 40.1892C78.4096 37.3824 78.4964 37.1922 79.5818 36.9067C80.233 36.764 80.9277 36.5737 81.1448 36.5261C81.3619 36.4786 82.6209 32.9106 84.0102 28.6291C87.4835 17.6399 87.2664 18.6389 86.0942 18.6389C85.1824 18.6389 84.6615 19.6855 81.0145 29.2C78.7569 35.0514 76.6295 40.1892 76.2822 40.6174C75.6744 41.4261 73.6338 41.4737 44.9794 41.4737H14.3278L7.59833 38.9048C3.90799 37.5252 0.73863 36.0504 0.521551 35.7174C0.261056 35.2893 1.69378 31.5786 4.86314 24.5854L9.55205 14.1195L43.5467 13.8816L77.5413 13.6438L79.9291 7.69721C81.2316 4.41471 82.6209 1.46522 83.0117 1.13221C84.1405 0.228335 104.372 0.32348 105.544 1.22736ZM81.9697 9.60011C80.6672 12.835 79.4081 15.7845 79.1476 16.1175C78.8003 16.5933 71.767 16.736 44.8925 16.736C22.6202 16.736 11.0716 16.8787 11.0716 17.2117C11.0716 17.5447 22.1426 17.6874 43.373 17.6874C63.3443 17.6874 76.152 17.8777 76.8032 18.1632C77.411 18.401 77.932 18.9243 77.932 19.2573C77.932 19.6379 76.2822 24.0146 74.2417 29.0573C72.2011 34.0999 70.5513 38.3339 70.5513 38.429C70.5513 38.5242 71.463 38.6193 72.5484 38.6193H74.5456L75.631 35.8601C76.2388 34.3854 79.1042 27.0592 81.9697 19.5903L87.2664 6.03218L94.1695 5.88946C101.029 5.79432 102.245 5.50888 102.245 4.08171C102.245 3.51084 100.725 3.41569 93.3012 3.51084L84.3141 3.65355L81.9697 9.60011ZM87.5703 12.2166L86.2244 15.7845H87.6572C89.0465 15.7845 89.1767 15.5942 90.4792 12.4545C91.2173 10.5991 91.8251 9.02924 91.8251 8.88653C91.8251 8.74381 91.1738 8.64866 90.3489 8.64866C88.9596 8.64866 88.8294 8.79138 87.5703 12.2166ZM97.1218 25.8223L97.035 38.9523L102.809 39.1902C109.278 39.4756 111.058 40.0941 113.446 43.0911C114.879 44.8989 115.53 46.8969 115.964 50.8455L116.268 53.3668H118.786H121.304L121.435 51.3687C121.565 49.561 121.695 49.3231 122.694 49.1804C124.561 48.9426 124.821 47.5154 124.821 37.8582V29.0573L121.782 21.636C120.132 17.5447 118.439 13.8341 118.048 13.3583C117.354 12.502 116.616 12.4545 107.281 12.5496L97.2521 12.6923L97.1218 25.8223ZM64.8638 29.3427C62.9535 34.0524 61.434 38.0485 61.434 38.2387C61.434 38.4766 62.7799 38.6193 64.4731 38.6193C67.382 38.6193 67.5122 38.5718 68.1634 37.2397C69.3357 34.766 74.4587 21.5408 74.4587 21.0175C74.4587 20.6845 73.3733 20.5418 71.3762 20.6369L68.2503 20.7796L64.8638 29.3427ZM58.9159 22.7777C53.7928 35.6223 52.7508 38.2863 52.7508 38.429C52.7508 38.5242 54.0099 38.6193 55.5728 38.6193H58.3515L59.2632 36.3358C61.4774 30.9602 65.3414 21.0175 65.3414 20.7796C65.3414 20.6369 64.0823 20.5418 62.5628 20.5418H59.7842L58.9159 22.7777ZM51.1444 21.1127C50.9708 21.4457 49.2775 25.4893 47.4541 30.0563L44.1111 38.3815L46.7594 38.5242C48.2356 38.6193 49.538 38.4766 49.7551 38.2863C50.1893 37.763 56.6582 21.636 56.6582 21.0175C56.6582 20.3039 51.5786 20.3991 51.1444 21.1127ZM39.2051 29.1048C37.3816 33.6718 35.862 37.7154 35.862 38.0009C35.8186 38.429 36.6435 38.6193 38.5538 38.6193H41.2456L44.632 30.1514C46.4555 25.4893 47.9751 21.4457 47.9751 21.1127C47.9751 20.6845 47.237 20.5418 45.2833 20.6369L42.5481 20.7796L39.2051 29.1048ZM30.7824 28.867C29.0023 33.2912 27.4394 37.3349 27.3091 37.763C27.092 38.5242 27.396 38.6193 29.8707 38.6193H32.6493L36.1225 29.9136C38.0763 25.1563 39.5524 21.0651 39.4221 20.8748C39.2919 20.6845 38.0328 20.5418 36.6001 20.6369L33.9952 20.7796L30.7824 28.867ZM25.4857 21.1127C25.0949 21.6835 18.4523 38.0485 18.4523 38.4766C18.4523 38.5718 19.7548 38.6193 21.3177 38.5242L24.1832 38.3815L27.613 29.866C29.4799 25.1563 31.0429 21.1602 31.0429 20.9224C31.0429 20.3039 26.0067 20.4942 25.4857 21.1127ZM16.8459 21.1127C16.3249 22.0165 10.6374 36.3358 10.6374 36.764C10.6374 37.2397 14.8488 38.762 15.3264 38.429C15.7605 38.1436 22.3597 21.8262 22.3597 21.0651C22.3597 20.3039 17.2801 20.3991 16.8459 21.1127ZM6.42611 27.3922L3.30016 34.2902L5.47096 35.0514C6.6866 35.5271 7.85883 35.6698 8.03249 35.4795C8.68373 34.766 14.0239 21.1127 13.7634 20.8272C13.6331 20.6845 12.6346 20.5418 11.5492 20.5418H9.55205L6.42611 27.3922ZM90.3924 39.6183C90.1753 40.0465 90.0884 40.9504 90.2621 41.6164C90.7831 43.8999 93.9959 43.1387 93.9959 40.7601C93.9959 40.1892 93.7354 39.4756 93.4749 39.1902C92.7368 38.3815 90.9568 38.6669 90.3924 39.6183ZM80.9711 41.4737V43.3766H84.2273H87.4835V41.8067C87.4835 40.9028 87.3532 40.0465 87.1796 39.9038C87.0493 39.7135 85.5732 39.5708 83.9234 39.5708H80.9711V41.4737ZM55.7031 47.7057C58.0041 49.1328 60.3486 52.3678 60.7827 54.6513C60.913 55.2697 61.0867 56.2687 61.2169 56.9347C61.3906 57.8862 61.6945 58.124 62.7365 58.124H63.9955L64.1258 52.7484L64.256 47.4202H77.4978H90.7397L90.9568 50.9882C91.1304 54.128 91.2173 54.4134 91.6948 53.5095C91.9987 52.9386 92.2592 51.0833 92.2592 49.3707V46.2309H72.8089H53.402L55.7031 47.7057ZM30.1746 47.3727C32.7361 48.8474 34.8201 51.8445 35.6884 55.3173C36.2962 57.6959 36.5567 58.124 37.3816 58.124C38.2065 58.124 38.4236 57.791 38.6841 56.3163C39.3353 52.4629 41.3324 49.3231 44.5018 47.2299L46.0214 46.2309H37.1211H28.2209L30.1746 47.3727ZM17.1498 47.1824C17.1498 47.7057 17.3235 48.1338 17.4971 48.1338C17.6708 48.1338 18.5825 47.7057 19.5377 47.1824L21.2309 46.2309H19.1904C17.4537 46.2309 17.1498 46.3736 17.1498 47.1824ZM98.3375 49.6561C91.3909 53.5095 92.3895 65.0221 99.857 67.4007C106.369 69.4939 112.317 63.4046 110.841 56.0784C109.669 50.0843 103.374 46.8969 98.3375 49.6561ZM45.0662 50.227C43.8506 51.0833 42.852 52.4153 42.1139 53.9852C37.2514 64.689 50.9273 73.3472 57.2226 63.5473C59.0461 60.693 59.2632 57.4105 57.787 54.128C56.7017 51.7018 55.8333 50.7979 53.185 49.228C51.3615 48.1338 47.237 48.6571 45.0662 50.227ZM19.885 50.227C17.2367 52.1775 15.6303 55.8406 15.9776 59.2182C16.9327 68.0667 27.3091 70.8735 31.998 63.5949C33.8649 60.693 34.082 57.4105 32.6059 54.128C31.5205 51.7018 30.6521 50.7979 28.0038 49.228C26.1803 48.1338 22.0558 48.6571 19.885 50.227ZM84.9654 55.127L85.0956 60.2648H86.8323H88.5689L88.6991 55.127L88.8294 50.0367H86.8323H84.8351L84.9654 55.127ZM72.7221 55.2697V60.5027H77.4978H82.2736V55.2697V50.0367H77.4978H72.7221V55.2697ZM66.6439 55.2697V60.5027H68.3805H70.1171V55.2697V50.0367H68.3805H66.6439V55.2697ZM123.953 53.3668C123.953 54.7464 124.04 54.794 125.907 54.794C127.773 54.794 127.86 54.7464 127.86 53.3668C127.86 51.9872 127.773 51.9396 125.907 51.9396C124.04 51.9396 123.953 51.9872 123.953 53.3668Z" fill="#4C4C4C"/>
<path d="M117.788 16.1165C119.264 19.2087 122.65 28.8659 122.477 29.3892C122.26 29.96 120.48 30.0552 112.361 29.96L102.462 29.8173V22.6815V15.5456L109.929 15.4029C116.702 15.3077 117.44 15.3553 117.788 16.1165ZM114.835 22.6815V27.2008H117.05C119.568 27.2008 119.568 27.7241 117.31 21.8727C115.4 16.83 114.835 17.0203 114.835 22.6815ZM104.85 22.6815V27.2008H108.54H112.231V22.6815V18.1621H108.54H104.85V22.6815Z" fill="#4C4C4C"/>
<path d="M110.494 33.6245C110.928 34.1953 110.928 34.4808 110.494 35.0516C110.06 35.6225 109.191 35.7652 106.63 35.6701C103.417 35.5274 103.33 35.4798 103.33 34.3381C103.33 33.1963 103.417 33.1487 106.63 33.006C109.191 32.9109 110.06 33.0536 110.494 33.6245Z" fill="#4C4C4C"/>
<path d="M104.85 52.3205C110.928 55.6505 108.41 65.498 101.637 64.6893C95.6456 63.9282 94.3431 55.0797 99.8135 52.2253C101.724 51.2263 102.939 51.2739 104.85 52.3205ZM100.812 54.8418C99.6832 55.4127 98.7715 57.0777 98.7715 58.6476C98.7715 60.1224 100.682 61.9301 102.288 61.9301C105.414 61.9301 106.89 57.934 104.633 55.5078C103.504 54.2234 102.418 54.0331 100.812 54.8418Z" fill="#4C4C4C"/>
<path d="M52.5337 52.4105C54.7045 53.5522 55.7899 55.5027 55.7899 58.1191C55.7899 61.9725 53.3152 64.7793 49.9288 64.7793C46.5423 64.7793 44.0242 62.0677 43.9808 58.4522C43.9374 55.5978 45.2833 53.2192 47.5409 52.2202C49.7985 51.2211 50.4498 51.2687 52.5337 52.4105ZM47.4541 55.7405C46.3687 56.9774 46.195 57.4531 46.4121 58.7376C47.0633 62.4007 51.4483 63.2094 53.0113 59.9745C53.7928 58.2619 53.4455 56.5017 52.0127 55.2648C50.4498 53.9328 48.9736 54.0755 47.4541 55.7405Z" fill="#4C4C4C"/>
<path d="M27.3526 52.4105C29.5668 53.5998 30.6088 55.5027 30.6088 58.357C30.6088 62.1152 28.1341 64.7793 24.6608 64.7793C18.4089 64.7793 16.542 55.4075 22.1427 52.4105C24.4003 51.2211 25.1818 51.2211 27.3526 52.4105ZM22.6637 55.2648C21.2309 56.5017 20.8836 58.2619 21.6651 59.9745C22.3598 61.4492 23.1412 61.9249 24.7476 61.9249C26.354 61.9249 27.1355 61.4492 27.7867 59.9745C28.6985 58.0716 28.6116 57.2628 27.1789 55.693C25.7028 54.0755 24.2266 53.9328 22.6637 55.2648Z" fill="#4C4C4C"/>
</svg>
